<svg xmlns="http://www.w3.org/2000/svg" viewBox="0 0 303.08 283.54"><g id="Layer_2" data-name="Layer 2"><g id="Layer_1-2" data-name="Layer 1"><path d="M26.42,159.63,52.88,133l26.43-26.58a250.12,250.12,0,0,1,70.82,139.33l37.94.23a289.24,289.24,0,0,0-7.42-36.89,286.31,286.31,0,0,0-48.42-99A286.28,286.28,0,0,0,105.77,79.8l26.41-26.58,26.47-26.63L185.07,0a400.74,400.74,0,0,1,118,283.42l-37.47,0a362,362,0,0,0-12.52-93.82A361.61,361.61,0,0,0,192,64.76q-3.95-5.21-8.05-10.25L157.42,81.39a326.16,326.16,0,0,1,70.66,202.07H190.6l-37.53,0H115.58a212,212,0,0,0-7.35-54.92,211.7,211.7,0,0,0-31.15-66.82L50.15,189a175.77,175.77,0,0,1,27.9,94.57l-37.47,0a137.64,137.64,0,0,0-4.77-35.48A136.59,136.59,0,0,0,0,186.22Z"/></g></g></svg>