<svg xmlns="http://www.w3.org/2000/svg" viewBox="0 0 304.68 103.8"><g id="Layer_2" data-name="Layer 2"><g id="Layer_1-2" data-name="Layer 1"><path d="M43.92,24,41,37.92a16,16,0,0,0-5.28-.72C29,37.2,24.6,41,22.68,48.84L14.88,85.2H0L13,24h13L24,34.08c3.24-7.56,8-11.28,14.16-11.28C40.92,22.8,42.84,23.28,43.92,24Z"/><path d="M38.88,69.24A30.56,30.56,0,0,1,39.6,63L44,41.76c2.52-12.24,10.44-19,22.68-19C77.88,22.8,87,28.44,87,40.08a29.55,29.55,0,0,1-.72,6.12L81.84,67.44c-2.52,12.12-10.2,19-22.92,19C46.44,86.4,38.88,79.8,38.88,69.24Zm28.2-2.16,5-23.52a6.8,6.8,0,0,0,.24-1.92c0-4-2-6.24-6.12-6.24s-6.6,2.16-7.44,6.72l-5,23.64a6.8,6.8,0,0,0-.24,1.92c0,3.84,2.16,6.12,6.24,6.12S66.12,71.64,67.08,67.08Z"/><path d="M86.76,69.24A30.56,30.56,0,0,1,87.48,63l4.44-21.24c2.52-12.24,10.44-19,22.68-19,11.16,0,20.28,5.64,20.28,17.28a29.55,29.55,0,0,1-.72,6.12l-4.44,21.24c-2.52,12.12-10.2,19-22.92,19C94.32,86.4,86.76,79.8,86.76,69.24ZM115,67.08l5-23.52a6.8,6.8,0,0,0,.24-1.92c0-4-2-6.24-6.12-6.24s-6.6,2.16-7.44,6.72l-5,23.64a6.8,6.8,0,0,0-.24,1.92c0,3.84,2.16,6.12,6.24,6.12S114,71.64,115,67.08Z"/><path d="M164.52,18.36,163.32,24h10.32l-2.52,12H160.8L150.24,85.2H135.6L146,36h-7.68l2.52-12h7.68l1.92-9c2.16-10.2,7.8-15,17.28-15a23.27,23.27,0,0,1,10.8,2.28l-2.52,12A18.78,18.78,0,0,0,169.92,13C166.8,13,165.36,14.64,164.52,18.36Z"/><path d="M190.2,67a9.08,9.08,0,0,0-.24,2.28c0,3,1.92,4.32,6.12,4.32a13.54,13.54,0,0,0,3.6-.48l-2.76,12.6a21.11,21.11,0,0,1-5.52.72c-9.84,0-16.68-4.08-16.68-13.32a29.65,29.65,0,0,1,.6-5.28L182.16,36h-7.8l2.52-12h8.28l4.68-16.08h12.84L199.32,24h10.44l-2.52,12H196.8Z"/><path d="M206.4,69.24a30.56,30.56,0,0,1,.72-6.24l4.44-21.24c2.52-12.24,10.44-19,22.68-19,11.16,0,20.28,5.64,20.28,17.28a29.55,29.55,0,0,1-.72,6.12l-4.44,21.24c-2.52,12.12-10.2,19-22.92,19C214,86.4,206.4,79.8,206.4,69.24Zm28.2-2.16,5-23.52a6.8,6.8,0,0,0,.24-1.92c0-4-2-6.24-6.12-6.24s-6.6,2.16-7.44,6.72l-5,23.64a6.8,6.8,0,0,0-.24,1.92c0,3.84,2.16,6.12,6.24,6.12S233.64,71.64,234.6,67.08Z"/><path d="M304.68,36.6a37.83,37.83,0,0,1-.84,6.84l-5.52,25.68C295.8,81,289.68,86.4,281.16,86.4c-6.6,0-11.16-2.88-13.2-7.8l-5.4,25.2H247.68L264.6,24h13l-1.44,7.56c3.24-5.64,8.4-8.64,14.4-8.64C299.52,22.92,304.68,27.6,304.68,36.6ZM289.2,40.92c0-3.6-1.8-5.52-5.88-5.52-3.36,0-6.24,2.28-7.8,7.68L271.08,64a27.43,27.43,0,0,0-.24,3c0,4.68,2.52,6.84,6.48,6.84,3.72,0,5.76-2.64,6.72-7.44l4.68-22.08A18.83,18.83,0,0,0,289.2,40.92Z"/></g></g></svg>