<svg id="Layer_2" data-name="Layer 2" xmlns="http://www.w3.org/2000/svg" viewBox="0 0 1000 1000"><defs><style>.cls-1{fill:#e4e4f4;}</style></defs><path class="cls-1" d="M927.2,770.94c-4.55,0-10.53-2-17.45-4.35-8.66-2.93-18.49-6.24-27.7-6.24a32.85,32.85,0,0,0-6.35.59,92.68,92.68,0,0,1-18.17,1.79c-21.47,0-38.33-7.36-46.26-20.19-11.12-18-33.88-28.06-49.65-28.39-12.93-.26-22.31-5.61-22.83-13-.26-3.72,1.43-7.06,3.06-10.28l.11-.22c3.68-7.28,13.5-20.67,37.88-28.66,13.38-4.39,25-6.61,34.48-6.61,19.46,0,30.19,9.11,31.89,27.09,2.66,28.16,24.4,50.22,49.51,50.22.9,0,1.81,0,2.72-.08s1.75-.08,2.61-.08c16.32,0,27.2,9.46,31.94,18.32,3.41,6.38,3.84,12.88,1.11,17-1.4,2.11-3.66,3.13-6.89,3.13Zm-45.15-12.59c9.54,0,19.53,3.37,28.34,6.34,6.76,2.28,12.59,4.25,16.81,4.25h0c2.54,0,4.21-.71,5.23-2.24,2.32-3.48,1.85-9.19-1.21-14.92-4.47-8.34-14.74-17.26-30.18-17.26-.82,0-1.66,0-2.49.08s-1.9.08-2.84.08c-26.13,0-48.75-22.85-51.5-52-1.59-16.78-11.64-25.28-29.9-25.28-9.29,0-20.68,2.19-33.86,6.51-23.69,7.77-33.17,20.66-36.71,27.66l-.12.22c-1.51,3-3.07,6.07-2.85,9.24.45,6.33,9,10.91,20.88,11.15,16.3.34,39.82,10.73,51.31,29.34,7.56,12.23,23.8,19.24,44.56,19.24A91,91,0,0,0,875.31,759,34.52,34.52,0,0,1,882.05,758.35Z"/><path class="cls-1" d="M814.27,709.29c-3.1,0-6.28-1.14-9.35-2.24s-6.38-2.28-9.61-2.28a13.51,13.51,0,0,0-1.57.09,82.94,82.94,0,0,1-10.19.8c-5.72,0-9.21-1.16-10.65-3.55-1.16-1.92-.91-4.5.76-7.68l.06-.11c.49-.69,12.19-17,30-17a29.6,29.6,0,0,1,4.09.29c9.22,1.32,15.55,7.14,16.92,15.57,1,6.45-1.28,12.86-5.4,14.92a11,11,0,0,1-5,1.16Zm-19-6.52c3.57,0,7,1.22,10.29,2.4,3,1.09,5.92,2.12,8.67,2.12a9,9,0,0,0,4.14-.95c3.31-1.66,5.21-7.28,4.31-12.81-.58-3.61-3.24-12.2-15.23-13.91a27,27,0,0,0-3.8-.27c-16.26,0-27.57,15.08-28.29,16.07-1.29,2.49-1.56,4.39-.79,5.66,1,1.71,4,2.58,8.94,2.58a81.46,81.46,0,0,0,9.94-.78A13.58,13.58,0,0,1,795.31,702.77Z"/><path class="cls-1" d="M30.37,946.16c-2.28,13.56.92,23.82,3.75,32.87,2.14,6.85,4,12.77,3.05,18.79-1.65,10.7-5.43,14.4-8.77,17.65-2.75,2.69-5.35,5.23-5.49,11.06-.08,3.18,1.5,6.59,4.44,9.61a25.17,25.17,0,0,0,11.37,6.55H51.78c4.68-1.32,9.92-4.35,14.6-10.78,9.94-13.65,2.79-58.39-9.53-92-9.6-26.18-20.87-42.6-30.94-45a20.37,20.37,0,0,0-4.62-.7c-1.7,0-2.82.47-3.42,1.45-1.33,2.15.47,5.76,3.45,11.74C26,916.63,33,930.7,30.37,946.16Zm-10.8-49.52c.26-.41,1.07-.5,1.72-.5a19.19,19.19,0,0,1,4.15.64C34.71,899,45.75,915.41,55,940.57c12.15,33.15,19.35,77,9.8,90.16-6.54,9-14.18,10.85-19.44,10.85a23.85,23.85,0,0,1-16.55-6.84c-2.56-2.62-3.94-5.52-3.88-8.16.13-5,2.13-7,4.89-9.67,3.39-3.31,7.61-7.42,9.36-18.78,1-6.48-1-12.9-3.12-19.69-2.76-8.84-5.89-18.86-3.69-32,2.7-16.1-4.48-30.52-9.23-40C20.9,902,18.82,897.84,19.57,896.64Z"/><path class="cls-1" d="M1022.69,644.84c-17.5-9.08-29.37-26.88-32-38.25-3.47-14.88-16.13-22.33-27.3-28.9-1.71-1-3.38-2-5-3-1.17-.73-2.58-1.58-4.16-2.52-11.33-6.81-32.41-19.48-33-28.25a5.09,5.09,0,0,1,2.15-4.45,14,14,0,0,1,9-3.41c8,0,14.69,7.15,14.81,7.27,10.85,10.31,17.74,15.82,44.11,18.69,11.14,1.21,21.71,5.59,31.43,11v-2.29c-9.64-5.26-20.12-9.48-31.21-10.69-25.79-2.8-32.13-7.87-42.91-18.1-.29-.32-7.34-7.87-16.23-7.87A15.89,15.89,0,0,0,922.09,538a7,7,0,0,0-2.88,6.13c.71,9.81,21.55,22.34,34,29.82,1.57.94,3,1.79,4.14,2.51,1.59,1,3.27,2,5,3,10.82,6.37,23.08,13.59,26.36,27.64,2.66,11.37,14.81,30.81,34,40.17Z"/><path class="cls-1" d="M114.91,588.54a32.54,32.54,0,0,0-6.32-.59c-7.1,0-14.54,2-21.75,3.88-7,1.85-13.55,3.6-19.59,3.6a20.15,20.15,0,0,1-11.16-2.93c-3-1.94-6.38-4.26-9.93-6.72-15-10.45-33.77-23.45-54.68-25.72-5.54-.6-10.19-1.31-14.17-2.15v2c4,.83,8.55,1.53,14,2.12,20.4,2.22,38.9,15.06,53.76,25.37,3.56,2.47,6.93,4.81,10,6.77a22.08,22.08,0,0,0,12.23,3.24c6.3,0,13-1.78,20.11-3.66S101.75,590,108.59,590a30.18,30.18,0,0,1,5.93.55c9.79,2,12.68,8.62,12.17,13.73-.48,4.82-4.1,10-10.92,10l-1,0c-6.8-.52-14.11,5.81-22.6,13.19-11.2,9.72-25.14,21.83-43.4,23.08-1.11.08-2.23.12-3.33.12-29.65,0-51.11-28.21-54.79-44-2-8.69-7.19-14.83-13.36-19.76v2.61c5.31,4.53,9.66,10.08,11.41,17.61,3.59,15.38,24.55,45.54,56.74,45.54,1.15,0,2.31,0,3.47-.12,18.93-1.3,33.14-13.65,44.57-23.57,8.15-7.08,15.13-13.15,21.14-12.71a12.88,12.88,0,0,0,14-11.76C129.32,598,125.31,590.62,114.91,588.54Z"/><path class="cls-1" d="M49.61,635.44c-6.37,0-27.79-1.52-35.48-21-3.91-9.88-2.6-15.1-.8-17.74a7.46,7.46,0,0,1,6.36-3.3,10.44,10.44,0,0,1,5.94,2A20.78,20.78,0,0,1,30,600a20.66,20.66,0,0,0,3.6,4c4.48,3.47,12.38,7.61,24.64,7.61,1.12,0,2.28,0,3.44-.11.28,0,.57,0,.84,0,4.86,0,8.47,2.77,9.43,7.24a12.87,12.87,0,0,1-7.7,14.11C60.62,634.49,55.28,635.44,49.61,635.44Zm-29.92-40A5.53,5.53,0,0,0,15,597.85c-1.25,1.83-2.77,6.32,1,15.88,7.23,18.29,27.56,19.71,33.62,19.71,5.32,0,10.49-.9,13.85-2.41A10.85,10.85,0,0,0,70,619.16c-.8-3.76-3.85-5.9-8.19-5.64-1.2.07-2.4.11-3.56.11-12.83,0-21.14-4.37-25.86-8a22.28,22.28,0,0,1-4-4.34,19,19,0,0,0-4-4.22A8.54,8.54,0,0,0,19.69,595.42Z"/><path class="cls-1" d="M119.34,677.71a17.48,17.48,0,0,1-3.34-.32c-7.47-1.41-10.45-6-10.08-9.95.3-3.18,2.67-5.33,5.71-4.92l.15,0h0s4.36,1.1,14.5-4.21c5.05-2.64,8.15-3,9.8-1.23a5.14,5.14,0,0,1,1,4C136.76,666.91,130.32,677.71,119.34,677.71Zm-8.43-13.24a3.15,3.15,0,0,0-3,3.16c-.28,3,2.23,6.62,8.47,7.8a15.85,15.85,0,0,0,3,.28c9.61,0,15.47-9.72,15.79-14.71a3.48,3.48,0,0,0-.51-2.52c-.91-1-3.55-.39-7.41,1.63-7.53,3.95-12.16,4.54-14.24,4.54a6.77,6.77,0,0,1-1.66-.16Z"/><path class="cls-1" d="M344.42,916.22a4.32,4.32,0,0,1-3.54-1.38c-.79-1-1-2.44-.58-4.31,1.08-5,7.91-13.93,17.63-13.93a17,17,0,0,1,5.69,1c7.26,2.54,9.16,7.43,8.58,10.85a5.28,5.28,0,0,1-5,4.72,5.19,5.19,0,0,1-1.45-.21l-.14-.05h0a8.93,8.93,0,0,0-3.19-.42,36.91,36.91,0,0,0-11.78,2.41A19.86,19.86,0,0,1,344.42,916.22Zm13.51-17.62c-8.53,0-14.74,8-15.68,12.35a3.43,3.43,0,0,0,.19,2.64c.8,1,3.48.81,7.51-.58a39.43,39.43,0,0,1,12.44-2.52,10.9,10.9,0,0,1,3.94.56c1.85.51,3.54-.81,3.9-2.94.45-2.64-1.18-6.49-7.27-8.63A15.41,15.41,0,0,0,357.93,898.6Z"/><path class="cls-1" d="M470.45,607c-5.26,0-15.15-2.44-19.71-7.67-1.06-1.22-1.38-2.31-1-3.24.51-1.11,1.9-1.65,4.25-1.65,5.5,0,17.53,3.46,20.68,9.12a2,2,0,0,1,.12,2c-.48.87-1.58,1.31-3.57,1.42Q470.89,607,470.45,607ZM451.6,596.94s0,.33.65,1.1c4.3,4.93,14,7,18.2,7l.69,0a4.75,4.75,0,0,0,1.87-.36.36.36,0,0,0,0-.09c-2.5-4.47-13.24-8.09-18.94-8.09-1.79,0-2.37.38-2.43.48Z"/><path class="cls-1" d="M872.18,296.16c-6.23,0-17.25-3.21-20.35-8.25a2,2,0,0,1-.2-2c.44-.89,1.52-1.37,3.51-1.57a15,15,0,0,1,1.58-.08c4.93,0,14.51,1.86,19.24,6.85,1.12,1.19,1.49,2.28,1.07,3.24C876.51,295.57,874.92,296.16,872.18,296.16Zm-18.69-9.38,0,.08c2.7,4.39,13,7.3,18.65,7.3,2.26,0,3-.47,3-.59h0s0-.33-.69-1.07c-4.3-4.54-13.19-6.23-17.79-6.23a11.44,11.44,0,0,0-1.38.07A4.39,4.39,0,0,0,853.49,286.78Z"/><path class="cls-1" d="M452.36,467c-12.1,0-26.91-4.81-44-14.31-6.45-3.58-13.93-8-20.47-13.52a52.22,52.22,0,0,1-14.62-20.05,34.54,34.54,0,0,0-12.31-15.56,91.64,91.64,0,0,0-9.24-5.36c-2.48-1.32-5.05-2.68-7.49-4.2a59.29,59.29,0,0,1-18.07-17.62c-4.86-7.3-9.12-13.22-15.89-17.53a42.71,42.71,0,0,0-19.1-6.35c-1.4-.12-2.84-.19-4.27-.19a51,51,0,0,0-31.61,10.92,32.06,32.06,0,0,0-9.59,13.39c-.58,1.45-1.1,3-1.61,4.45a46.1,46.1,0,0,1-3.76,8.94c-5.8,9.76-18.28,11.8-27.74,11.8-2.32,0-4.74-.12-7.19-.36-13.38-1.3-27.2-6.3-40-14.44-13.64-8.68-23.86-19.71-29.57-31.88-5.26-11.22-5-23-4.69-34.32.1-4.26.21-8.66,0-13-.38-9.31-1.34-19.83-8-26.88a51.27,51.27,0,0,0-7.67-6.27c-3.42-2.44-7-5-9.73-8.6-6.31-8.31-7.76-17.32-3.87-24.08,6.74-11.72,23.51-14,35.75-15.65l4.47-.63c13.06-2,26.37-3.63,39.25-5.23,6.67-.84,13.56-1.7,20.34-2.59l5.93-.76c12.39-1.56,25.2-3.18,36.9-7.25a60.65,60.65,0,0,1,20.2-3.62,57.87,57.87,0,0,1,12,1.28c14,3,26,10.17,33.7,20.28,6.13,8,8.72,18.33,11.23,28.31,3.59,14.31,7,27.82,19.9,35.1,8,4.53,17.07,7.24,25.82,9.86,4.85,1.45,9.86,2.95,14.64,4.75,13.63,5.1,21.19,12.83,23.82,24.35A118.06,118.06,0,0,1,408,346.9c.68,8.22,1.37,16.72,4.75,24.58,5.3,12.33,16.35,20.32,27,28l3.51,2.55.21.15c10.09,7.4,20.52,15,28.7,24.68,3.9,4.6,7.48,14.44,6.45,22.34a18.36,18.36,0,0,1-7.49,12.14C467.84,463.92,461.85,467,452.36,467ZM286.88,350.26c1.49,0,3,.07,4.44.2a44.6,44.6,0,0,1,20,6.65c7.11,4.52,11.49,10.61,16.48,18.11a57.53,57.53,0,0,0,17.47,17c2.38,1.49,4.91,2.83,7.37,4.13a93.41,93.41,0,0,1,9.43,5.48,36.54,36.54,0,0,1,13,16.43,50.48,50.48,0,0,0,14.07,19.31c6.41,5.42,13.79,9.76,20.15,13.29C426.12,460.22,440.6,465,452.36,465c8.93,0,14.52-2.81,17.63-5.16A16.33,16.33,0,0,0,476.71,449c.92-7.13-2.36-16.51-6-20.79-8-9.45-18.37-17-28.36-24.36l-.21-.16c-1.16-.85-2.33-1.69-3.51-2.54-10.89-7.89-22.17-16-27.68-28.88-3.51-8.16-4.22-16.83-4.91-25.21a117.13,117.13,0,0,0-2.15-16.51c-2.46-10.8-9.63-18.08-22.57-22.92-4.72-1.77-9.7-3.26-14.51-4.7-8.86-2.66-18-5.4-26.23-10-13.67-7.72-17.33-22.28-20.86-36.36-2.46-9.78-5-19.9-10.88-27.58-7.45-9.74-19-16.68-32.52-19.54a55.37,55.37,0,0,0-11.6-1.24,58.84,58.84,0,0,0-19.54,3.51c-11.9,4.14-24.81,5.77-37.31,7.34l-5.92.76c-6.78.9-13.68,1.76-20.35,2.59-12.87,1.61-26.17,3.27-39.21,5.23-1.42.21-2.92.42-4.49.63-12.49,1.69-28,3.8-34.29,14.67-5.15,9,1.56,19,3.74,21.87,2.58,3.4,5.84,5.72,9.29,8.18a53.38,53.38,0,0,1,8,6.52c7.13,7.55,8.15,18.51,8.54,28.18.18,4.42.07,8.86,0,13.15-.29,11.63-.56,22.62,4.5,33.42,5.55,11.83,15.52,22.57,28.83,31,12.53,8,26,12.87,39.11,14.14,2.39.24,4.75.35,7,.35,8.94,0,20.71-1.87,26-10.83a45.57,45.57,0,0,0,3.58-8.55c.51-1.5,1-3.06,1.64-4.56a34,34,0,0,1,10.2-14.2A53,53,0,0,1,286.88,350.26Z"/><path class="cls-1" d="M197.76,370.51c-7.31,0-14.78-2.84-22.85-8.7-27.08-19.66-24.22-33-20.59-49.9.59-2.75,1.2-5.6,1.69-8.57,2.69-16.11-2.31-23.15-7.15-29.95-4-5.6-7.74-10.9-6.36-20.47,0-1.26,1-13.92,26-13.42l6.29.14c5.79.13,11.77.27,17.64.27,15.82,0,33.73-.87,46.6-7.3a48.79,48.79,0,0,1,21.66-5.33c14,0,24.71,7.05,29.52,19.36,4.13,10.57,4.57,18.2,5,24.93s.74,12.63,4.68,20c6.35,11.78,24.53,17.85,42.12,23.72,20,6.69,38.95,13,35,27.51-2.7,9.85-7.69,14.64-15.25,14.64h0c-7.25,0-16.18-4.38-25.63-9-3.4-1.67-6.92-3.4-10.48-5l-2.88-1.28c-14.08-6.3-31.59-14.13-48.23-14.13-10.5,0-19.28,3.05-26.84,9.33-4.36,3.62-8.49,7.5-12.49,11.25C223.13,359.86,211.76,370.51,197.76,370.51Zm-30.65-129c-22.35,0-22.61,11.39-22.61,11.51v.14c-1.29,8.83,2.09,13.58,6,19.09,4.84,6.81,10.32,14.52,7.5,31.43-.51,3-1.12,5.89-1.72,8.67-3.47,16.18-6.21,29,19.82,47.86,7.71,5.6,14.8,8.32,21.67,8.32,13.21,0,24.29-10.39,36-21.39,4-3.77,8.18-7.67,12.58-11.33,7.82-6.49,17.28-9.79,28.12-9.79,17.06,0,34.8,7.93,49,14.3l2.88,1.29c3.58,1.59,7.12,3.32,10.54,5,9.24,4.53,18,8.81,24.75,8.81h0c6.63,0,10.86-4.19,13.33-13.16,3.48-12.69-13.74-18.44-33.68-25.09-17.95-6-36.52-12.19-43.24-24.68-4.16-7.71-4.53-14.06-4.92-20.78s-.82-14.05-4.84-24.33c-6.15-15.73-20-18.08-27.65-18.08A46.89,46.89,0,0,0,240,234.39c-13.25,6.63-31.45,7.52-47.5,7.52-5.9,0-11.89-.14-17.69-.27l-6.28-.14Z"/><path class="cls-1" d="M198.6,348.35a22.27,22.27,0,0,1-10-2.46c-.05,0-13.72-5.51-8.56-26.13,2.13-8.5-.3-15.54-2.64-22.35-3.09-9-6-17.49,1.66-28,7.36-10.08,13-11.47,18.07-11.47a53.21,53.21,0,0,1,5.89.45,61.39,61.39,0,0,0,7.36.54,35.44,35.44,0,0,0,5.48-.42c6.05-.94,10.65-3.11,15.09-5.2,4.74-2.22,9.22-4.33,14.6-4.33a24,24,0,0,1,8.3,1.58c7.33,2.69,13.63,10.17,16.84,20,3,9.3,2.52,18.68-1.35,24.48-4.52,6.79-11.19,10.09-20.39,10.09a67.46,67.46,0,0,1-11.1-1.15c-3.86-.64-6.46-.14-8,1.57-1.75,2-2.28,5.67-1.62,11.33.63,5.46-3.22,14.27-9.16,20.92C213,344.61,205.75,348.35,198.6,348.35Zm-1.48-88.41c-5.21,0-10,1.81-16.45,10.65-7.06,9.67-4.43,17.31-1.39,26.17,2.44,7.08,5,14.41,2.69,23.48-4.73,18.92,7.31,23.78,7.43,23.83a20.56,20.56,0,0,0,9.2,2.28c6.57,0,13.31-3.51,19-9.87s9.23-14.41,8.66-19.37c-.73-6.34-.06-10.44,2.12-12.88,2-2.24,5.23-3,9.8-2.22a65.56,65.56,0,0,0,10.78,1.13c8.48,0,14.6-3,18.73-9.19,3.54-5.31,4-14,1.11-22.76-3-9.26-8.87-16.27-15.62-18.75a22,22,0,0,0-7.62-1.46c-4.93,0-9,1.92-13.75,4.14-4.35,2.05-9.29,4.38-15.64,5.37a36.66,36.66,0,0,1-5.78.44,64.38,64.38,0,0,1-7.59-.55A50.07,50.07,0,0,0,197.12,259.94Z"/><path class="cls-1" d="M235.21,293c-7.05,0-12.79-6.17-12.79-13.75,0-8.48,4.06-13.75,10.58-13.75,6.94,0,15,6,15,13.75C248,286.83,242.26,293,235.21,293ZM233,267.5c-8,0-8.58,9-8.58,11.75,0,6.48,4.84,11.75,10.79,11.75S246,285.73,246,279.25,238.89,267.5,233,267.5Z"/><path class="cls-1" d="M1.52,511.33a18.4,18.4,0,0,1-9.92-3.17C-16.12,503.05-19,497-15.85,492.22c2-3.09,6.37-5.09,11-5.09a15.63,15.63,0,0,1,8.65,2.55c6.9,4.56,9.77,12.42,6.41,17.51C8.49,509.82,5.32,511.33,1.52,511.33Zm-6.35-22.2c-4,0-7.66,1.64-9.35,4.19-2.92,4.42,1.64,9.7,6.89,13.17a16.32,16.32,0,0,0,8.81,2.84c3.11,0,5.68-1.18,7-3.24,2.76-4.17.14-10.79-5.85-14.74A13.61,13.61,0,0,0-4.83,489.13Z"/><path class="cls-1" d="M1001.52,511.33a18.4,18.4,0,0,1-9.92-3.17c-7.72-5.11-10.57-11.21-7.45-15.94,2.05-3.09,6.37-5.09,11-5.09a15.63,15.63,0,0,1,8.65,2.55c6.9,4.56,9.78,12.42,6.41,17.51C1008.49,509.82,1005.32,511.33,1001.52,511.33Zm-6.35-22.2c-4,0-7.66,1.64-9.35,4.19-2.92,4.42,1.64,9.7,6.89,13.17a16.32,16.32,0,0,0,8.81,2.84c3.11,0,5.68-1.18,7-3.24,2.76-4.17.14-10.79-5.85-14.74A13.61,13.61,0,0,0,995.17,489.13Z"/><path class="cls-1" d="M937.31,873.11a27.88,27.88,0,0,1-17.21-6.32c-10-8.11-14.19-19.59-9.33-25.57,1.92-2.36,4.94-3.61,8.76-3.61,5.63,0,12.43,2.79,18.19,7.47,11.19,9.08,15.35,18.16,10.87,23.69C946.35,871.53,942.24,873.11,937.31,873.11Zm-17.78-33.5c-3.19,0-5.68,1-7.2,2.87-4.17,5.13-.11,15.34,9,22.76a25.88,25.88,0,0,0,15.95,5.87c4.32,0,7.87-1.31,9.72-3.6,4.44-5.47-2.55-14.37-10.57-20.87C931,842.24,924.71,839.61,919.53,839.61Z"/><path class="cls-1" d="M53.07,230.83c-2.4-2.94-6.45-4.37-12.4-4.37-5.34,0-11.5,1.14-16.93,2.16-3.58.67-7,1.3-9.64,1.52,0,0-1.93.1-5.06.1a161.32,161.32,0,0,1-31.73-3.06v2a164.06,164.06,0,0,0,31.73,3c3.19,0,5.08-.1,5.19-.1,2.8-.23,6.24-.87,9.88-1.55,5.34-1,11.4-2.13,16.56-2.13s8.86,1.18,10.85,3.63,2.56,6.67,1.41,12.24C48.7,265,27.47,267.22,18.53,267.22c-1.69,0-2.73-.09-2.82-.09-8.15,0-17.38-4.36-27.15-9-3.68-1.73-7.43-3.49-11.25-5.1v2.17c3.52,1.51,7,3.14,10.39,4.74,10,4.71,19.41,9.15,27.91,9.15h0s1.12.1,2.91.1h0c7.36,0,31.7-1.76,36.36-24.49C56.18,238.46,55.59,233.91,53.07,230.83Z"/><path class="cls-1" d="M1022.69,267.06c-1.56.12-3,.16-4.16.16-1.69,0-2.73-.09-2.82-.09-8.15,0-17.38-4.36-27.15-9-7.79-3.67-15.84-7.47-24.39-9.69l-2.54-.66c-14.8-3.82-35.06-9.06-39.27-17.06a6.48,6.48,0,0,1-.33-5.5c1.48-4.06,5.26-6,11.55-6,8.1,0,19.16,3.23,29.85,6.36,2.16.63,4.32,1.26,6.45,1.86,14.77,4.18,30.87,4.81,39.16,4.81,3.19,0,5.08-.1,5.19-.1,2.44-.2,5.35-.71,8.46-1.29v-2c-3.19.59-6.19,1.12-8.59,1.32,0,0-1.93.1-5.06.1-8.18,0-24.08-.62-38.62-4.73-2.12-.6-4.27-1.23-6.43-1.86-10.83-3.17-22-6.44-30.41-6.44-7.24,0-11.63,2.41-13.43,7.36a8.49,8.49,0,0,0,.44,7.11c4.63,8.79,24.54,13.93,40.54,18.07l2.54.66c8.37,2.17,16.33,5.93,24,9.56,10,4.71,19.41,9.15,27.91,9.15h0s1.12.1,2.91.1c1.07,0,2.5,0,4.16-.17Z"/><path class="cls-1" d="M1022.69,462.57c-8.53-7.91-20.41-14.59-38.43-19.53-19.16-5.27-29-12.1-38.53-18.7-12.84-8.91-25-17.32-57.61-21.33-8.45-1-14.73-4.2-18.68-9.39-5.15-6.78-6.61-17.08-4.45-31.47,2.63-17.55,34-43.44,58.7-43.44a31.78,31.78,0,0,1,9,1.25,119.55,119.55,0,0,0,33.91,4.58,124.89,124.89,0,0,0,20.6-1.57,81.83,81.83,0,0,1,16.53-1.51,99,99,0,0,1,18.93,1.81v-2a101.26,101.26,0,0,0-18.93-1.78A80.92,80.92,0,0,0,986.82,321a125.19,125.19,0,0,1-20.19,1.52,117.56,117.56,0,0,1-33.35-4.5,33.88,33.88,0,0,0-9.59-1.33c-26,0-57.88,26.49-60.68,45.14-2.24,15-.66,25.74,4.84,33,4.28,5.64,11,9.06,20,10.16,32.15,3.95,44.08,12.23,56.71,21,9.66,6.7,19.65,13.63,39.15,19,18.71,5.14,30.56,12,39,20.27Z"/><path class="cls-1" d="M144.26,827.9c-1,0-2.13-.06-3.23-.16-19.14-1.86-26.08-11.24-35.22-26.48-3.9-6.5-9.34-8.64-15.11-10.91-7.09-2.79-14.42-5.67-18.23-17.1A131,131,0,0,0,67,760c-5.45-11.91-9.39-20.51,1.39-33.64.09-.14,3.59-5.2,14.39-5.2,6.16,0,13.5,1.65,21.82,4.9a55.33,55.33,0,0,0,20.26,3.7c23.61,0,45.05-13.08,53.17-18.7,7.29-5,14-7.61,19.83-7.61,6.23,0,11.36,2.94,14.84,8.5,2,3.26,7.63,6,13.55,8.92,11,5.42,23.52,11.56,19.81,23.94-3,10-11.58,16.84-19.15,22.87-6.43,5.11-12.5,9.94-14.1,15.8-2.17,8-9.31,10-16.87,12.26-5.9,1.72-12,3.51-16.64,8.14-2.13,2.13-4.17,4.44-6.16,6.68C165.6,819.08,157.77,827.9,144.26,827.9ZM82.8,723.15c-9.64,0-12.76,4.35-12.79,4.4-10,12.23-6.51,19.94-1.17,31.61a132.46,132.46,0,0,1,5.53,13.46c3.51,10.54,10.09,13.13,17.07,15.87,5.82,2.29,11.84,4.66,16.09,11.74,8.79,14.65,15.12,23.72,33.7,25.52,1,.1,2.05.15,3,.15,12.62,0,19.8-8.1,27.41-16.68,2-2.26,4.07-4.59,6.24-6.76,5-5,11.63-6.94,17.49-8.65,7.31-2.14,13.63-4,15.5-10.86,1.78-6.5,8.09-11.53,14.78-16.85,7.7-6.13,15.66-12.46,18.48-21.87,3.23-10.76-8-16.26-18.78-21.57-6.18-3-12-5.91-14.36-9.66-3.14-5-7.56-7.56-13.14-7.56s-11.74,2.44-18.69,7.25c-8.28,5.73-30.14,19.06-54.31,19.06a57.34,57.34,0,0,1-21-3.83C95.8,724.75,88.71,723.15,82.8,723.15Z"/><path class="cls-1" d="M142.45,791.75c-20.61,0-38.16-7.38-45.8-19.26a21.49,21.49,0,0,1-1.77-21.13c3.27-7.2,7.72-10.41,14.42-10.41,3.81,0,8,1,12.81,2.11,6,1.41,12.83,3,20.54,3,1.29,0,2.59,0,3.85-.13.09,0,14.33-1.9,26.05-11.27,5.86-4.69,12.31-7.37,17.71-7.37,7.2,0,11.7,4.7,12.33,12.91,1.21,15.82-13.47,48.17-52.92,51.25C147.24,791.65,144.81,791.75,142.45,791.75ZM109.3,743c-5.89,0-9.66,2.76-12.6,9.24s-2.35,13,1.63,19.22c7.28,11.31,24.19,18.34,44.12,18.34,2.31,0,4.69-.09,7.07-.28,38.06-3,52.24-34,51.07-49.11-.55-7.24-4.13-11.06-10.33-11.06-4.95,0-10.95,2.52-16.46,6.93a59.72,59.72,0,0,1-27.1,11.7c-1.37.1-2.71.14-4,.14-7.94,0-14.87-1.62-21-3.06C117,743.91,112.88,743,109.3,743Z"/><path class="cls-1" d="M135.4,773.31c-8.51,0-9.78-4-9.78-6.42,0-.42.86-8.2,16.64-9.46,3.65-.29,7.11-.73,10.16-1.12a85.53,85.53,0,0,1,9.28-.87c1.8,0,4,.19,4.89,1.68.64,1,.51,2.39-.38,4.17C163.57,766.57,146.29,773.31,135.4,773.31Zm26.3-15.87a82.54,82.54,0,0,0-9,.86c-3.08.39-6.56.82-10.25,1.12-13.94,1.12-14.8,7.5-14.8,7.56,0,2.84,2.62,4.33,7.78,4.33,10.7,0,26.91-6.7,29-10.92.53-1,.7-1.86.47-2.22S164.09,757.44,161.7,757.44Z"/><path class="cls-1" d="M498.21,587.55c-12.31-8.06-26.26-17.2-35.37-31.42-17-26.57-52.31-39.83-75.67-48.61-6.38-2.4-11.89-4.47-16.08-6.43-15.43-7.2-22.84-23.92-31.42-43.29-2.33-5.27-4.75-10.71-7.44-16.24-9.06-18.61-24.1-25.22-34.22-25.22-5,0-9,1.62-10.84,4.44-3.9,5.84-14.6,15.74-30,15.74a36.27,36.27,0,0,1-6-.51,23.07,23.07,0,0,0-3.75-.32c-8.52,0-14.5,5-20.84,10.32-5.47,4.58-11.12,9.31-18.79,11a28.55,28.55,0,0,1-6.28.72c-14.32,0-24.39-11.54-32.71-22.35-6-7.84-11.69-10.7-21.07-15.43a264.2,264.2,0,0,1-26.18-14.8c-14.09-9.06-19.1-16.93-25.44-26.9-6.18-9.71-13.18-20.72-30.44-36-21.26-18.83-45.4-22.79-61.9-22.79A80.92,80.92,0,0,0-13.18,321c-.06,0-3.69.66-9.51,1.11v2c6-.46,9.83-1.15,9.92-1.17a81.83,81.83,0,0,1,16.53-1.51c16.16,0,39.78,3.87,60.58,22.29,17,15.1,24,26,30.07,35.58,6.22,9.77,11.59,18.21,26.05,27.51a264.14,264.14,0,0,0,26.36,14.9c9.13,4.61,14.63,7.39,20.39,14.87,8.6,11.19,19.06,23.13,34.29,23.13a31.33,31.33,0,0,0,6.72-.76c8.14-1.81,14-6.7,19.63-11.43,6.05-5.07,11.77-9.86,19.56-9.86a20.4,20.4,0,0,1,3.43.3,39,39,0,0,0,6.35.53,39.38,39.38,0,0,0,31.64-16.63c1.48-2.22,4.91-3.55,9.18-3.55,10.3,0,24.32,7.45,32.43,24.1,2.67,5.49,5.08,10.92,7.4,16.17,8.75,19.74,16.3,36.78,32.4,44.3,4.27,2,9.81,4.07,16.23,6.48,23.11,8.68,58,21.81,74.69,47.82,9.33,14.58,23.47,23.84,35.95,32,16.3,10.67,28.07,18.38,22,32.37-3.78,8.68-12.26,13.08-25.2,13.08-18.06,0-41.17-8.81-54.67-17.52-2.65-1.71-5.22-3.41-7.74-5.07-16.62-11-31-20.45-48.57-20.45l-1.6,0c-16.75.48-28-12.78-38.86-25.64-2.18-2.58-4.25-5-6.36-7.37-5.74-6.33-15.52-8.13-25.88-10-12.74-2.35-25.91-4.78-30.61-16.33-3.85-9.49-11.21-14.5-21.29-14.5-9.14,0-20.15,4.16-30.22,11.4a51.07,51.07,0,0,1-29.91,9.94,47.21,47.21,0,0,1-23-6c-7.83-4.38-13.43-6.25-18.73-6.25-7.61,0-14.45,4.13-22.38,10.33-5.57,4.36-15.8,7-27.36,7h0c-18.81,0-42.64-7.17-53.13-27.3-3.25-6.25-5.9-12.31-8.46-18.17C34.69,474.94,25.72,454.41-15.74,443c-2.46-.68-4.77-1.39-7-2.11V443c2,.66,4.16,1.31,6.43,1.93,40.53,11.13,48.91,30.29,59.51,54.54,2.58,5.9,5.24,12,8.53,18.3,10.9,20.92,35.51,28.37,54.9,28.37h0c12,0,22.69-2.76,28.59-7.38,9.12-7.13,15.05-9.91,21.15-9.91,4.93,0,10.24,1.79,17.75,6a49.2,49.2,0,0,0,24,6.26,53,53,0,0,0,31.08-10.32c9.59-6.9,20.45-11,29.05-11,9.33,0,15.87,4.46,19.44,13.25,5.11,12.57,18.83,15.1,32.1,17.54,10,1.85,19.47,3.59,24.75,9.42,2.09,2.32,4.15,4.75,6.32,7.33,10.65,12.6,22.73,26.88,40.46,26.34s32.16,9,49,20.09c2.52,1.66,5.1,3.37,7.75,5.08,13.75,8.87,37.31,17.84,55.76,17.84,13.62,0,23-4.94,27-14.28C527.69,606.86,514,597.91,498.21,587.55Z"/><path class="cls-1" d="M198.54,491.32c-1.81-7.44-16.32-16.1-32.34-19.3-9.59-1.92-13.6-7.54-18.23-14.06s-9.81-13.79-21.64-17.9c-21.06-7.33-32.58-25.45-47.17-48.39-1.09-1.71-2.19-3.45-3.32-5.21-15.76-24.63-38.32-37.65-65.23-37.65-1.87,0-3.78.07-5.68.19-6.76.45-13.22.67-19.73.67-2.71,0-5.33,0-7.89-.11v2c2.56.07,5.18.11,7.89.11,6.56,0,13.05-.22,19.87-.67,1.85-.13,3.72-.19,5.54-.19,26.2,0,48.17,12.7,63.55,36.73l3.32,5.21c14.21,22.34,26.48,41.64,48.19,49.19,11.23,3.91,16,10.66,20.67,17.18s9.1,12.79,19.46,14.86c15.08,3,29.18,11.17,30.8,17.81.5,2-.23,3.83-2.22,5.43a12.13,12.13,0,0,1-7.72,2.25h0c-12,0-29.61-10.09-37.91-19.15C136.61,467.09,118.82,453,105.27,453c-.45,0-.9,0-1.34,0s-1,.05-1.5.05c-14.48,0-39.16-12.83-45.52-26.47C50,411.7,39.48,403.17,28.14,403.17a25,25,0,0,0-6.4.86c-3,.81-6.46,2.06-10.1,3.38-8.37,3-17.86,6.49-27.14,6.49a32,32,0,0,1-7.19-.78v2.05a34,34,0,0,0,7.19.73c9.63,0,19.3-3.51,27.82-6.61,3.6-1.3,7-2.54,9.94-3.32a22.68,22.68,0,0,1,5.88-.8c10.53,0,20.35,8.11,27,22.25,6.83,14.62,32.16,27.63,47.34,27.63.56,0,1.11,0,1.64-.05s.8,0,1.2,0c12.92,0,30.69,14.39,42,26.72,8.58,9.36,26.87,19.79,39.4,19.79h0a14,14,0,0,0,9-2.69C198.9,496.16,199,493.27,198.54,491.32Z"/><path class="cls-1" d="M1022.69,403.81l-1,.22c-3,.81-6.46,2.06-10.1,3.38-8.37,3-17.86,6.49-27.14,6.49a27.55,27.55,0,0,1-19.81-7.63c-15.77-14.83-31.72-19.46-43.37-22.84-8.18-2.37-14.09-4.09-16.19-8.18-1.38-2.71-1.12-6.49.81-11.9.23-.6,6-15.31,28-14.35,6.58.29,12.86.74,18.94,1.19,10,.73,20.35,1.48,32.3,1.48,6.56,0,13-.22,19.87-.67,1.85-.13,3.72-.19,5.54-.19a76,76,0,0,1,12.08.95v-2a78.49,78.49,0,0,0-12.08-.92c-1.87,0-3.78.07-5.68.19-6.76.45-13.22.67-19.73.67-11.87,0-22.19-.75-32.16-1.48-6.09-.44-12.38-.9-19-1.19-23.46-1-29.92,15.49-30,15.66-2.14,6-2.36,10.27-.71,13.5,2.49,4.86,8.75,6.68,17.42,9.19,11.45,3.32,27.13,7.87,42.54,22.38a29.53,29.53,0,0,0,21.19,8.17c9.63,0,19.3-3.51,27.82-6.61,3.6-1.3,7-2.54,9.94-3.32l.43-.1Z"/><path class="cls-1" d="M102.78,523.47c-9.39,0-15.33-3.28-16.75-9.24-2.51-10.54-9-15.71-13.8-19.48-3.57-2.84-6.4-5.08-6.34-8.43,0-2.43,1.93-4.44,5.17-5.52a56.09,56.09,0,0,1,17.07-3c7.06,0,13,1.81,17.49,5.37s10.69,6.71,16.53,9.67c8.68,4.4,16.19,8.2,17,13,.31,1.95-.5,3.89-2.4,5.8C130.33,518.08,114.79,523.47,102.78,523.47ZM88.13,479.84a53.89,53.89,0,0,0-16.44,2.86c-1.13.37-3.76,1.48-3.8,3.66,0,2.36,2.32,4.23,5.59,6.82,5,4,11.82,9.37,14.49,20.59,1.52,6.36,8.89,7.7,14.81,7.7,11.37,0,26.56-5.22,32.51-11.18,1.45-1.44,2.05-2.77,1.84-4.06-.61-3.83-8-7.58-15.89-11.56-5.93-3-12-6.11-16.86-9.88C100.2,481.5,94.73,479.84,88.13,479.84Z"/><path class="cls-1" d="M385.78,550.74c-4.85,0-11.41-3.73-19-8-9-5.12-19.22-10.92-27.89-10.92a17,17,0,0,0-2.72.21,44.06,44.06,0,0,1-6.8.54c-15,0-27.41-8.5-32.3-22.19-3.55-9.94-15.63-16.09-24.78-16.09a14,14,0,0,0-8.67,2.54c-5.7,4.43-15.55,9.14-22.6,9.14-3.51,0-6.06-1.12-7.57-3.34s-1.76-4.72-2-7.19c-.06-.51-.11-1-.18-1.5-1.12-8.24-1.55-27.85,18.58-31.88a53.26,53.26,0,0,1,10.41-1.16c7.73,0,12.06,2.35,16.65,4.85,4.42,2.4,9,4.88,17.19,5.29,20.17,1,25.54,9.07,35.28,23.7l.5.75c4.23,6.34,17.81,15.3,30.95,24,16.16,10.66,30.11,19.88,30.92,26.07a3.81,3.81,0,0,1-.95,3.16A6.35,6.35,0,0,1,385.78,550.74Zm-46.9-21c9.19,0,19.65,5.94,28.88,11.18,7,4,13.7,7.78,18,7.78a4.37,4.37,0,0,0,3.47-1.4,1.89,1.89,0,0,0,.47-1.58c-.69-5.29-15.61-15.14-30-24.66-13.31-8.79-27.06-17.87-31.51-24.55l-.5-.75C318,481.26,313.11,474,294,473c-8.66-.43-13.43-3-18-5.54-4.36-2.36-8.48-4.6-15.7-4.6a51.42,51.42,0,0,0-10,1.12c-17.81,3.56-18.29,20.11-17,29.65.07.51.13,1,.19,1.54.26,2.33.51,4.54,1.71,6.3s3.1,2.46,5.91,2.46c6.6,0,15.94-4.49,21.38-8.72a15.93,15.93,0,0,1,9.89-3c10.05,0,22.77,6.52,26.66,17.41,4.6,12.88,16.26,20.88,30.42,20.87a41.19,41.19,0,0,0,6.48-.52A20,20,0,0,1,338.88,529.78Z"/><path class="cls-1" d="M514.12,563.87c-3.92,0-6.5-2.56-9.78-5.8a64.92,64.92,0,0,0-7-6.25c-3.05-2.27-8-4.81-13.32-7.49-10.81-5.51-21-10.71-21-16.07,0-2.09,1.61-3.93,4.73-5.45.62-.29,15.09-7,29.36-7,6.76,0,12.37,1.54,16.68,4.57,9.9,7,16.24,18.25,15.77,28.11-.27,5.65-2.84,10.15-7.26,12.66C519,563,516.41,563.87,514.12,563.87Zm-17-46.08c-13.83,0-28.36,6.76-28.5,6.82-2.37,1.16-3.58,2.39-3.59,3.67,0,4.12,11,9.75,19.88,14.26,5.35,2.73,10.42,5.31,13.6,7.67a66.58,66.58,0,0,1,7.27,6.44c3.17,3.14,5.27,5.22,8.37,5.22,1.93,0,4.21-.79,7.17-2.47,4.87-2.78,6.09-7.53,6.25-11,.44-9.2-5.56-19.81-14.92-26.39C508.65,519.21,503.43,517.79,497.09,517.79Z"/><path class="cls-1" d="M882.84,244.05c1.71.18,3.32.36,4.72.57,5.78.9,13.13,2.57,18.69,7.53,1.4,1.24,2.7,2.65,4,4a51.59,51.59,0,0,0,4.93,4.87,55,55,0,0,0,10.8,6.89A66.77,66.77,0,0,0,949,274.2a58.66,58.66,0,0,0,8.7-.08,53.07,53.07,0,0,1,8.73,0c6.26.69,12.39,3.82,18.31,6.85,3,1.52,6.07,3.09,9.08,4.3a85.22,85.22,0,0,0,28.84,6v-2a82.19,82.19,0,0,1-28.09-5.86c-2.93-1.17-5.84-2.66-8.92-4.23-6.09-3.1-12.38-6.31-19-7a53.73,53.73,0,0,0-9.06,0,57.31,57.31,0,0,1-8.39.08,64.58,64.58,0,0,1-22.41-6.09,52.43,52.43,0,0,1-10.39-6.64,48.72,48.72,0,0,1-4.74-4.68,57.21,57.21,0,0,0-4.1-4.15c-6-5.3-13.66-7.06-19.71-8-1.45-.23-3.08-.4-4.82-.59-6.64-.7-14.9-1.59-18.5-6.05a9.55,9.55,0,0,1-1.79-7.35c.57-5.2,5.64-7.51,10.79-9.44l2.6-1c5.82-2.13,11.31-4.14,16.56-7.65,11.21-7.46,25-9.73,40.87-6.75,4.86.9,9.7,2.31,14.38,3.67,4.38,1.27,8.9,2.59,13.48,3.51a205.79,205.79,0,0,0,26,3.36c2.69.19,4.92.5,7.07.8,5.57.77,10.83,1.5,22.52,0q3-.39,5.68-.8v-2c-1.9.28-3.87.56-5.94.84-11.42,1.5-16.55.79-22,0-2.19-.31-4.45-.62-7.2-.82a203.49,203.49,0,0,1-25.73-3.32c-4.5-.91-9-2.21-13.32-3.47-4.73-1.37-9.61-2.79-14.57-3.72-16.45-3.08-30.69-.7-42.35,7.06-5.06,3.37-10.44,5.34-16.14,7.44l-2.61,1c-4.24,1.58-11.33,4.23-12.08,11.1a11.57,11.57,0,0,0,2.23,8.81C867.11,242.37,875.83,243.3,882.84,244.05Z"/><path class="cls-1" d="M1022.69,815.76c-3.94-1.52-7.82-2.84-11.62-4.14-18.44-6.3-35.85-12.25-50.17-36.06-.51-1.31-7.58-19.52-6.72-30.63.54-7-3.92-16.46-10.85-23.06-7.28-7-16.44-10.13-25.78-9l-1.67.21c-21.27,2.67-36.63,4.6-40-14.87a139.09,139.09,0,0,1-1.43-14.78c-1.15-18.53-2.46-39.52-26.61-46.11C835.2,633.92,770.51,619,737.5,664.14c-26.59,36.34-44.69,53.32-75.62,51.49-11.36-.67-19.63-5.67-28.4-11-14.76-8.92-30-18.15-61.22-7.18-16,5.63-27.49,10.59-36.72,14.58-19.1,8.24-28.69,12.38-49.33,10-12.12-1.42-30.12-11.43-47.53-21.1C411.32,685.7,383,670,371.53,683.2c-4.92,5.65-7.13,11.94-6.58,18.68,1.41,17.21,20.28,35,38.56,50.12l5.37,4.43c22.87,18.83,38,31.26,38,49.43,0,5.52-1.83,10.27-3.61,14.86-2.18,5.64-4.24,11-1.83,16.25,2.66,5.83,10.67,11,25.22,16.27,16.49,6,34.48,4.73,51.87,3.54,28.37-1.94,52.88-3.62,65,25l0,.11c.16.28,16.2,29.15-1.39,68.73-4,9-8.43,17.61-12.74,26-11.34,22-22.15,43.06-22.47,66.06h2c.33-22.56,11-43.35,22.24-65.14,4.32-8.39,8.79-17.07,12.79-26.08,17.61-39.63,2.15-69,1.33-70.48-12.69-29.92-39.06-28.12-67-26.21-17.18,1.18-34.95,2.4-51.05-3.42-14-5.07-21.66-9.91-24.08-15.22-2.06-4.53-.24-9.24,1.87-14.69,1.76-4.55,3.75-9.69,3.75-15.59,0-19.11-15.39-31.79-38.7-51l-5.36-4.43c-16.91-14-36.49-32.17-37.85-48.74-.51-6.27,1.48-11.9,6.1-17.21,10.43-12,38,3.33,64.67,18.14C456.1,712.87,473.46,722.53,486,724c21.17,2.49,30.92-1.72,50.35-10.11,9.21-4,20.67-8.92,36.59-14.52,30.3-10.66,45.16-1.68,59.53,7,8.58,5.19,17.46,10.56,29.31,11.26,31.88,1.88,50.33-15.38,77.35-52.31,32.24-44.06,95.78-29.41,108.19-26,22.76,6.21,24,25.58,25.14,44.3a139.33,139.33,0,0,0,1.45,15c3.71,21.35,21.57,19.11,42.24,16.51l1.66-.21c8.74-1.09,17.32,1.9,24.16,8.43,6.52,6.21,10.73,15,10.23,21.46-.91,11.93,6.57,30.79,6.89,31.59l.07.14c14.7,24.51,32.47,30.57,51.29,37,4.07,1.39,8.16,2.79,12.26,4.38Z"/><path class="cls-1" d="M943.18,955.4a141,141,0,0,0-36.72-29.29c-63.66-32.85-57-72.59-53.47-94,1.2-7.23-.27-13.08-4.37-17.39-9.23-9.72-30-9.58-45.73-7.76-25.91,3-34.85-8.6-51.1-29.62-18.62-24.1-52-12.4-70.24-3.28-22,11-37.13,4.48-64.1-9-29.7-14.85-58.88-.84-69.26,13.3a5.56,5.56,0,0,0-.92,5.8c4.36,9.95,41.6,14.93,76.16,18.81l8.45,1c24.68,3,63.19,18.5,68.13,49.17,2.67,16.56-14.69,36.62-28.24,44.74-6.7,4-12.16,5.08-15,2.94s-3.09-7.52-.85-15.57c4.59-16.44,3.21-30.55-4.1-41.95-11.36-17.74-33-22.91-41.7-24.31-4.85-.77-11.09-1.35-18.32-2-29.58-2.75-74.28-6.9-87-31.45-10.52-20.39,6.46-30,18.86-37,6.07-3.42,10.87-6.13,11.24-9.47a3,3,0,0,0-.86-2.5c-3.55-3.77-17.65-3.32-40.44-2.14-12,.63-24.49,1.27-32.6.53-11.78-1.06-17.33,3.72-18.6,8.55-1.52,5.8,2.25,14,14.1,19.36C476.91,772.06,487.8,787,485,801.82c-2.92,15.53,10.4,28.62,34.76,34.16,5.3,1.2,12.89,1.49,21.69,1.82,28.75,1.09,68.11,2.59,81.6,35.58,17.34,42.37-15.92,87.64-17.17,89.31-21.24,22.1-28.93,49-22.94,80h2c-6-30.55,1.51-57,22.39-78.66l.07-.09c.36-.47,35.47-47.3,17.47-91.32-14-34.18-55.75-35.77-83.38-36.82-8.7-.33-16.21-.61-21.33-1.78C497,828.75,484.29,816.55,487,802.18c3-15.8-8.36-31.55-29.57-41.09-10.72-4.83-14.25-12.21-13-17,1.35-5.16,7.66-7.86,16.48-7.06,8.26.75,20.77.1,32.88-.53,16.74-.87,35.72-1.85,38.89,1.51a1.11,1.11,0,0,1,.33.91c-.26,2.32-5.11,5.06-10.24,8-12.37,7-31.07,17.52-19.66,39.62C516.28,812,561.64,816.19,591.65,819c7.2.67,13.41,1.24,18.19,2,8.49,1.36,29.41,6.35,40.34,23.41,7,10.9,8.28,24.47,3.86,40.33-2.52,9-2,15,1.55,17.7s9.66,1.7,17.2-2.81c14.05-8.41,32-29.35,29.2-46.78C696.87,821.08,657.4,805,632.12,802c-2.44-.3-5.3-.62-8.47-1-24.56-2.76-70.29-7.9-74.55-17.63a3.65,3.65,0,0,1,.71-3.82c10-13.59,38.07-27,66.74-12.7,17.81,8.91,30.56,14.84,43.52,14.84,7.1,0,14.28-1.79,22.38-5.84,17.68-8.84,50-20.25,67.76,2.72,16.69,21.6,25.88,33.5,52.9,30.38,15.32-1.76,35.4-2,44.06,7.16,3.65,3.83,4.94,9.11,3.84,15.69-3.38,20.29-10.42,62.53,54.54,96a138.91,138.91,0,0,1,36.18,28.89c15.53,17.46,32.3,46.51,24,85.75l.75.16h1.25C976.08,1002.74,959,973.17,943.18,955.4Z"/><path class="cls-1" d="M680.76,255.66c-6.77,0-9.33-5.33-12.31-11.49a63.13,63.13,0,0,0-4.76-8.65c-2.54-3.69-11.15-7.73-19.48-11.63-10.74-5-20.89-9.79-21.65-15a5.22,5.22,0,0,1,2.07-4.69,15.41,15.41,0,0,1,9.66-3c5.13,0,10.54,2,16.1,6,5.4,3.89,11.58,6.31,17.56,8.65,10.81,4.22,21,8.22,23.89,20.12,2.41,10,2.64,14,1,16.38-1.56,2.22-4.52,2.56-9,3.07l-1.39.16A16,16,0,0,1,680.76,255.66Zm-46.47-52.51a13.59,13.59,0,0,0-8.34,2.54,3.29,3.29,0,0,0-1.41,2.89c.61,4.16,11.19,9.12,20.52,13.5,9,4.2,17.43,8.17,20.28,12.31a65.29,65.29,0,0,1,4.91,8.91c2.9,6,5,10.36,10.51,10.36a11.61,11.61,0,0,0,1.41-.09l1.41-.16c3.94-.45,6.54-.74,7.58-2.23,1.24-1.78.9-5.78-1.26-14.76-2.63-10.89-11.92-14.52-22.67-18.73-6.1-2.39-12.4-4.85-18-8.88C644,205.05,639,203.15,634.29,203.15Z"/><path class="cls-1" d="M704.68,447.07a13.48,13.48,0,0,1-3-.34c-5.29-1.25-10.56-6.79-16.67-13.2-6.27-6.6-13.39-14.07-21.49-17.49a26.15,26.15,0,0,1-15.83-19.25A21.48,21.48,0,0,1,654,377c11.74-11.12,34.72-36.09,37.69-50.94,1.17-5.82.79-11.43.46-16.39-.54-8-1-14.92,5.55-18.61a19.85,19.85,0,0,1,8-1.6c5,0,12.2,1.82,18.44,10.47,10.35,14.39,22.3,21.8,38.21,29.09s18.19,25.64,15.26,39.11c-1.66,7.66-13.11,18.68-24.19,29.35-9.74,9.38-19.82,19.08-21.79,25.28C727.53,435.71,714.93,447.07,704.68,447.07Zm1-155.6a18.27,18.27,0,0,0-7.07,1.38c-5.39,3-5,8.77-4.48,16.7.34,5.08.73,10.83-.48,16.91-3.07,15.32-25.51,39.89-38.29,52a19.51,19.51,0,0,0-5.75,18,24.14,24.14,0,0,0,14.64,17.76c8.49,3.59,15.75,11.22,22.16,18,5.64,5.92,11,11.52,15.68,12.63a11.2,11.2,0,0,0,2.55.29c9.47,0,21.18-10.7,25.06-22.9,2.13-6.69,11.93-16.13,22.31-26.12,10.86-10.46,22.09-21.27,23.63-28.33,2.77-12.75.73-30.05-14.15-36.87-16.2-7.43-28.38-15-39-29.74C716.79,293.14,710.22,291.47,705.72,291.47Z"/><path class="cls-1" d="M698.64,411.68c-5.87,0-14.35-2.17-21.47-12.54-.11-.18-8.82-14.43,10.58-31.95,7-6.35,11.23-13.27,14.93-19.37,5.51-9.07,9.86-16.23,20.41-16.23a27.57,27.57,0,0,1,4.71.43c13.47,2.31,21.69,6.18,25.85,12.2,3,4.35,3.85,9.77,2.54,16.55-1.82,9.44-10.11,15.68-18.12,21.71-6,4.5-11.65,8.76-14.45,14.1C719.69,404.09,709.84,411.68,698.64,411.68Zm24.45-78.09c-9.42,0-13.31,6.4-18.7,15.27-3.78,6.22-8.06,13.27-15.3,19.81-18.16,16.41-10.33,29.24-10.25,29.36,5.22,7.62,12.07,11.65,19.8,11.65,10.41,0,19.55-7.05,23.21-14,3-5.75,8.84-10.14,15-14.78,7.71-5.8,15.69-11.8,17.36-20.49,1.19-6.23.47-11.14-2.22-15-3.84-5.55-11.64-9.16-24.55-11.37A25.62,25.62,0,0,0,723.09,333.59Z"/><path class="cls-1" d="M767.64,896.92a14.06,14.06,0,0,1-2.91-.31c-12.17-2.55-21-13.33-21.56-26.21a19.48,19.48,0,0,1,7.52-16.5c8.24-6.81,15.69-10.26,22.13-10.26,5.88,0,11,2.83,15.3,8.42l1.56,2c7.48,9.69,7.45,10.29-.89,21.2a72.54,72.54,0,0,0-4.54,7.09C780,889.52,775.69,896.92,767.64,896.92Zm5.18-51.28c-6,0-13,3.3-20.85,9.8a17.57,17.57,0,0,0-6.8,14.88c.49,12,8.7,22,20,24.33a12.24,12.24,0,0,0,2.5.27c6.9,0,11-6.9,14.89-13.57a74.63,74.63,0,0,1,4.67-7.29c4.08-5.33,5.88-7.77,6-9.92s-1.64-4.39-5.08-8.84l-1.55-2C782.61,848.14,778.12,845.64,772.82,845.64Z"/><path class="cls-1" d="M657.48,657h0c-3.42,0-6.45-1.63-9-4.84-.62-.6-5.55-5.59-5.45-12.31.06-4.31,2.18-8.33,6.29-12,12.84-11.34,16.15-13.87,33.17-17.74,2.4-.54,4.2.15,5.13,1.93,2.78,5.25-2.89,19.32-9.74,29.34C673.88,647.24,666,657,657.48,657ZM684,612a4.79,4.79,0,0,0-1.07.13c-16.59,3.77-19.52,6-32.3,17.29-3.67,3.23-5.56,6.76-5.61,10.48-.1,6.14,4.82,10.83,4.87,10.87l.1.11c2.18,2.75,4.7,4.14,7.5,4.14,5.52,0,12.34-5.36,18.73-14.7,7.22-10.57,11.72-23.31,9.62-27.28A1.86,1.86,0,0,0,684,612Z"/><path class="cls-1" d="M932.2,895.43c-43.52-10-59.73-26.81-54.21-56.25,2.29-12.25-.43-20.37-2.41-26.31-2.31-6.9-3.58-10.7,3.63-15.91,8.46-6.11,25.45-7.6,39.53-3.47,11,3.23,18.83,9.47,22,17.58a42.88,42.88,0,0,0,20.53,23c6.06,3.1,12.88,3.16,19.92,3,13.28-.38,28.16.34,41.49,7.37v-2.25c-13.47-6.79-28.29-7.5-41.55-7.12-6.77.21-13.31.14-18.95-2.74a40.93,40.93,0,0,1-19.58-22c-3.41-8.7-11.69-15.36-23.3-18.77-14.62-4.29-32.36-2.67-41.28,3.77-8.4,6.07-6.7,11.14-4.35,18.17,2,6,4.54,13.57,2.34,25.31-5.69,30.34,11.5,48.4,55.74,58.56,21.17,4.86,40,19.83,52.93,42.15,13.94,24,18.47,52.6,11.82,74.62l1.91.58c6.81-22.54,2.21-51.73-12-76.2C973.18,915.72,953.92,900.41,932.2,895.43Z"/><path class="cls-1" d="M566.37,357.06c-11.48,0-26.65-3.66-34.82-13.93-5.1-6.41-6.62-14.27-4.52-23.35.1-.33,7.91-25,5-40.6-.56-3-1.39-6.17-2.27-9.55-2.67-10.23-5.42-20.81-.94-27.22,2.17-3.09,5.9-4.91,11.1-5.41.92-.08,1.86-.13,2.81-.13,20.57,0,41.18,20.62,50,29.42,9.61,9.62,23.34,33.94,13.12,49.26a120.52,120.52,0,0,0-7.17,13.18c-6.66,13.52-13.55,27.5-29.61,28.27C568.16,357,567.27,357.06,566.37,357.06ZM542.72,238.87a25.45,25.45,0,0,0-2.63.13c-4.64.44-7.8,1.93-9.64,4.56-4,5.65-1.32,15.78,1.23,25.56.89,3.42,1.73,6.64,2.3,9.7,3,16.06-4.7,40.45-5,41.48-1.93,8.39-.54,15.68,4.17,21.59,7.72,9.71,22.24,13.17,33.25,13.17.86,0,1.73,0,2.58-.06,14.89-.71,21.51-14.15,27.92-27.15a117.39,117.39,0,0,1,7.3-13.4c9.57-14.36-3.66-37.53-12.88-46.74C582.66,259.08,562.46,238.87,542.72,238.87Z"/><path class="cls-1" d="M567.51,319h0a10.77,10.77,0,0,1-7.18-3.23c-11.42-10.38-2.61-29.36-2.23-30.17a6.66,6.66,0,0,1,6.06-3.82c5.25,0,11.91,5.45,15.79,10.82,1.51,2.1,3.91,6,3,8.75C582.35,303.12,576.8,319,567.51,319Zm-3.35-35.22a4.63,4.63,0,0,0-4.28,2.73c-.06.13-8.53,18.4,1.79,27.78a8.86,8.86,0,0,0,5.84,2.71c6.4,0,11.53-10.24,13.54-16.29.44-1.31-.63-4-2.73-6.94C574.83,288.9,568.69,283.75,564.16,283.75Z"/><path class="cls-1" d="M792.9,324.15c-4.45-1.63-10-3.66-16.51-6.4-36.12-15.17-51.59-30.19-53.39-51.83a186.16,186.16,0,0,1-.22-19.24c.44-18.91.89-38.47-14.85-50.15-11.86-8.8-25.33-8.59-38.34-8.39-9.81.15-19.07.29-26.45-3.68-25.24-13.6-57.91-35-50.18-63.53,7.62-28.12,2.48-43.57-2.5-58.52-.73-2.19-1.48-4.45-2.17-6.7-11.11-36.12-4.69-67,19.1-91.68l.07-.09c0-.06.74-1,1.85-2.63h-2.42c-.53.76-.88,1.23-1,1.38C581.61-12,575,19.45,586.38,56.3c.7,2.27,1.45,4.54,2.18,6.74,4.88,14.67,9.93,29.83,2.47,57.37-9,33.39,36.27,57.79,51.16,65.81,7.84,4.22,17.36,4.07,27.43,3.92,12.69-.2,25.8-.4,37.12,8,14.91,11.06,14.47,30.09,14,48.5a187.69,187.69,0,0,0,.21,19.45c1.88,22.5,17.7,38,54.61,53.5,6.57,2.76,12.13,4.8,16.6,6.44,18.34,6.72,21.16,7.75,20.12,30.59-1,21.17-18.53,42.89-52.21,64.54C741,433.43,729,470.13,731,494.75c.3,3.63.85,8,1.44,12.54,2.4,18.63,5.69,44.15-5,53.92-4.55,4.14-11.44,5.2-20.51,3.15-33.83-7.64-32.47-54.26-31.48-88.29.19-6.39.37-12.42.26-17.42C675.3,441.72,662,435.83,648,429.59c-12.07-5.36-24.56-10.9-29.72-24-7-17.81,11.54-38.46,29.5-58.43,10.16-11.29,20.67-23,26.46-34.07,5.62-10.78,6.51-21.3,2.64-31.27-5.56-14.31-21.06-27-42.52-34.8-13.57-4.93-18.79-11.12-25.4-19-7.67-9.1-17.22-20.43-43.12-35-45.61-25.62-36.72-41.56-20.58-70.51.76-1.35,1.52-2.73,2.3-4.14,6.14-11.1,9.29-22,9.35-32.51,0-7.13-2-14-4-20.67C551.13,59.35,549.3,53.2,549,47c-1.09-24.17,10.22-46.15,22.2-69.41,2.72-5.29,5.5-10.71,8.18-16.24h-2.22c-2.55,5.21-5.16,10.32-7.74,15.32C557.33.14,545.89,22.35,547,47.05c.29,6.48,2.16,12.76,4,18.82,1.93,6.52,3.94,13.25,3.9,20.09-.06,10.13-3.12,20.75-9.1,31.56-.78,1.4-1.54,2.78-2.3,4.13-16.21,29.08-26,46.63,21.35,73.22,25.58,14.37,35,25.54,42.57,34.52,6.8,8.06,12.18,14.43,26.25,19.55,20.92,7.61,36,19.87,41.33,33.64,3.66,9.41,2.8,19.38-2.54,29.63-5.68,10.88-16.1,22.45-26.17,33.65-18.38,20.43-37.38,41.54-29.88,60.51,5.47,13.82,18.33,19.53,30.77,25.05,13.45,6,26.16,11.61,26.5,27.27.1,4.95-.07,11-.26,17.32-.95,32.77-2.4,82.3,33,90.3,9.74,2.2,17.24,1,22.29-3.62,11.51-10.47,8.14-36.59,5.69-55.66-.59-4.56-1.14-8.86-1.43-12.44-2-24,9.7-59.85,28.21-71.75,34.25-22,52.13-44.27,53.12-66.13C815.44,332.41,811.55,331,792.9,324.15Z"/><path class="cls-1" d="M997.74-38.69c7.07,19.72,6.74,38.6-1.15,52.64-4.33,7.73-4.71,17.33-5.08,26.61-.52,13.18-1,24.56-12.65,27.07-4.63,1-8.05.34-10.18-2-5.78-6.25-1-22.48-1-22.73C975.29,7,962.3-20.54,948.11-38.69h-2.55c14.27,17.76,27.79,45.19,20.23,81.14-.22.71-5.13,17.49,1.42,24.57,2.64,2.86,6.7,3.72,12.07,2.57,13.2-2.84,13.7-15.52,14.23-28.95.36-9,.73-18.4,4.83-25.71,8.08-14.39,8.55-33.59,1.53-53.62Z"/><path class="cls-1" d="M881.17,23.74C883.34-9.62,850-17.62,814.71-26.09c-14.54-3.49-29.52-7.09-42.19-12.6h-4.78C781.37-32,798.08-28,814.24-24.14c34.45,8.26,67,16.07,64.93,47.75-.91,14,.06,27.66.91,39.72,2.07,29.3,3.7,52.45-22,61a50.31,50.31,0,0,1-15.89,2.72c-24.82,0-42-21.55-55.74-38.86-1.36-1.72-2.7-3.4-4-5A25.26,25.26,0,0,0,762,73.31c-16,0-33.38,12.7-41.21,21.24-3.51,3.83-16,16.33-29.31,16.33a19.49,19.49,0,0,1-7.77-1.58c-8.39-3.62-12.44-13.11-15-21C663.34,72.21,657,41.93,674.6,20.16c3.82-4.73,7.54-9.68,11.48-14.91,13.21-17.54,26.75-35.51,42.86-43.94h-4.09C709.76-29.51,697-12.54,684.49,4,680.55,9.27,676.84,14.2,673,18.9,654.89,41.42,661.31,72.45,666.76,89c2.73,8.26,7,18.25,16.15,22.18a21.42,21.42,0,0,0,8.56,1.75c13.74,0,26.11-11.87,30.79-17,7.59-8.28,24.43-20.59,39.73-20.59a23.31,23.31,0,0,1,18.89,9.14q2,2.43,4,5c14,17.65,31.52,39.62,57.3,39.62a52.25,52.25,0,0,0,16.52-2.83c27.18-9,25.49-32.88,23.36-63C881.22,51.19,880.26,37.59,881.17,23.74Z"/><path class="cls-1" d="M836,95.56c-14.37,0-25.69-9.69-37.67-20-8.5-7.28-17.28-14.8-27.43-18.86a55.63,55.63,0,0,0-20.71-4.2c-20.05,0-31.2,11.72-34.14,15.31-2.61,3.19-6,5-9.43,5-6.59,0-14.44-6.7-16.07-21.41-.68-6.16-1.31-13.31-.08-20.16,1.64-9.11,8.15-20.52,29.88-23.07,16.48-1.94,23.21-8.71,29.15-14.68,5.18-5.21,10.08-10.14,20.35-10.14a45.13,45.13,0,0,1,8.88,1c27.12,5.43,77.61,15.53,76.5,44.57-.29,7.45.63,15.51,1.52,23.3,2.33,20.49,4.53,39.84-15.85,43A32.55,32.55,0,0,1,836,95.56Zm-85.81-45a57.73,57.73,0,0,1,21.45,4.34c10.46,4.18,19.37,11.82,28,19.2,11.7,10,22.74,19.47,36.37,19.47a29.67,29.67,0,0,0,4.59-.36c18.49-2.84,16.49-20.42,14.17-40.77-.9-7.87-1.83-16-1.53-23.6.92-24-35.45-34.65-74.9-42.54a43.36,43.36,0,0,0-8.48-.94c-9.44,0-13.84,4.43-18.93,9.55-6.17,6.2-13.16,13.23-30.34,15.26-20.51,2.41-26.63,13-28.14,21.43-1.18,6.59-.6,13.29.1,19.59,1.5,13.48,8.35,19.63,14.08,19.63,2.9,0,5.63-1.46,7.89-4.21C722.75,56.55,736.08,50.55,750.21,50.55Z"/><path class="cls-1" d="M829.5,56.3a20.77,20.77,0,0,1-4.5-.54c-9.64-2.14-14.29-7.59-18-12-3.27-3.83-5.85-6.86-10.66-6.86a13.72,13.72,0,0,0-2.06.17,17.59,17.59,0,0,1-2.59.2c-6.21,0-11.48-3.75-12.24-8.72-.85-5.51,3.74-10.42,12.3-13.12l.13,0A122.09,122.09,0,0,1,809.78,14c14.19,0,22.83,3.12,25.67,9.27,4.41,9.56,7,22.14,2.79,28.7-1.84,2.88-4.78,4.34-8.74,4.34ZM796.32,34.94c5.73,0,8.86,3.67,12.18,7.56,3.72,4.36,7.94,9.31,16.93,11.31a18.75,18.75,0,0,0,4.07.49h0c3.23,0,5.61-1.15,7.06-3.42,3.77-5.89,1.12-18-2.92-26.78C830.54,17.39,819,16,809.78,16a119.39,119.39,0,0,0-17.51,1.4c-7.49,2.39-11.55,6.45-10.87,10.9.62,4,5,7,10.27,7a14.69,14.69,0,0,0,2.28-.18A16.54,16.54,0,0,1,796.32,34.94Z"/><path class="cls-1" d="M664.31,1042.69a51.39,51.39,0,0,1,10.29-22.53c3.82-4.73,7.54-9.68,11.48-14.91,18.1-24,36.81-48.88,61.88-48.88a45.25,45.25,0,0,1,19.78,5c13.63,6.65,30.34,10.66,46.5,14.54,34.45,8.26,67,16.07,64.93,47.75-.42,6.47-.43,12.87-.25,19.08h2c-.18-6.18-.17-12.53.25-19,2.17-33.36-31.17-41.36-66.46-49.83-16.06-3.85-32.67-7.83-46.09-14.38A47.15,47.15,0,0,0,748,954.37c-26.07,0-45.09,25.25-63.47,49.67-3.94,5.23-7.65,10.16-11.45,14.86a53.37,53.37,0,0,0-10.76,23.79Z"/><path class="cls-1" d="M691.85,1042.69a51.19,51.19,0,0,1,.61-11.1c1.51-8.44,7.63-19,28.14-21.43,17.18-2,24.17-9.06,30.34-15.26,5.09-5.12,9.49-9.55,18.93-9.55a43.36,43.36,0,0,1,8.48.94c24.65,4.93,75.95,15.19,74.9,42.54a108.46,108.46,0,0,0,.5,13.86h2a107.61,107.61,0,0,1-.51-13.79c1.11-29.05-49.38-39.14-76.5-44.57a45.13,45.13,0,0,0-8.88-1c-10.27,0-15.17,4.93-20.35,10.14-5.94,6-12.67,12.74-29.15,14.68-21.73,2.55-28.24,14-29.88,23.07a53.18,53.18,0,0,0-.63,11.45Z"/><path class="cls-1" d="M1022.69,138.15c-22.86,5.44-43.92,1-59.53-5-28.87-11.1-49.67-30.82-57.41-40.73-17.42-22.28-6.92-50.75-6.8-51.06,14.21-41-7.19-64.12-36.84-80.06h-4.38C888.34-23,911.3-.38,897.07,40.69c-.12.29-11,29.78,7.1,53,7.87,10.07,29,30.11,58.27,41.37,15.81,6.08,37.11,10.56,60.25,5.18Z"/><path class="cls-1" d="M882.47,553.84c-.76,6.18,1.28,11.35,5.94,15,14.84,10.88,30.63,16.91,48.2,23.11l1.19.51c6.68,2.84,13.58,5.77,16.26,12.9,1.24,3.53,2.38,7.17,3.48,10.69,4.18,13.39,8.51,27.24,19.84,37.76a131.45,131.45,0,0,0,15.17,10.11c1,.52,2,1,2.91,1.53a35.66,35.66,0,0,0,8.37,3.57,79.66,79.66,0,0,1,18.86,5.88v-2.19a80.76,80.76,0,0,0-18.45-5.65,33.42,33.42,0,0,1-7.83-3.38c-.95-.5-1.92-1-2.9-1.51a130.63,130.63,0,0,1-14.83-9.87c-10.88-10.11-14.94-23.1-19.23-36.85-1.11-3.53-2.25-7.19-3.51-10.77-3-7.95-10.62-11.2-17.36-14.06l-1.25-.53c-17.47-6.17-33.12-12.15-47.72-22.85-5.11-4-5.62-9.33-5.15-13.13a70.68,70.68,0,0,1,2.64-11.16c1.52-5.2,3.1-10.58,2.9-16.15-.25-6.84-.53-14.59,1.92-21.38.51-1,1-2.29,1.51-3.52s1-2.46,1.43-3.37c6.75-11.55,13.71-22.68,24.77-31.73,3.38-2.76,6.94-3.68,10.58-2.75,6.26,1.61,11.47,8.37,13.85,14.32a99.31,99.31,0,0,1,4,16.34,99.72,99.72,0,0,0,4.07,16.73c8.46,18.62,29.06,22.63,47.24,26.18,4,.78,7.78,1.51,11.37,2.36a87.6,87.6,0,0,1,12,4.79v-2.2a88.47,88.47,0,0,0-11.46-4.51c-3.7-.88-7.5-1.62-11.51-2.41-18.57-3.62-37.78-7.36-45.78-25a99.31,99.31,0,0,1-4-16.34,100.21,100.21,0,0,0-4.05-16.69c-2.39-6-7.81-13.64-15.22-15.54-4.29-1.11-8.44,0-12.34,3.14-11.32,9.26-18.4,20.54-25.26,32.32-.52,1-1,2.33-1.54,3.58s-1,2.46-1.46,3.42l-.05.11c-2.6,7.16-2.31,15.14-2.06,22.18.19,5.25-1.27,10.24-2.82,15.52A73.21,73.21,0,0,0,882.47,553.84Z"/><path class="cls-1" d="M633.33,71.92c2.48,28.38,4.83,55.18,33.34,62.91,32.25,8.74,50.73-3.07,65.57-12.57,2.5-1.59,4.85-3.09,7.21-4.48,8.79-5.16,23.4-5.3,36.36-.35,13.13,5,22.42,14.19,26.16,25.85,3.35,10.46,13.59,18.26,28.81,22,20.55,5,45.15,1.17,54.84-8.5a113.14,113.14,0,0,0,11.22-13.69c8.53-11.67,14.17-19.38,28.59-11.12,2.76,1.58,6,3.69,9.72,6.13,18.72,12.22,50,32.67,87.54,26.8V162.8c-37,5.89-68-14.34-86.44-26.42-3.77-2.46-7-4.58-9.82-6.18-16-9.15-22.7,0-31.21,11.67a111.67,111.67,0,0,1-11,13.46c-9.25,9.23-33,12.8-53,8-14.52-3.52-24.24-10.85-27.38-20.63-3.92-12.24-13.64-21.86-27.35-27.1-13.49-5.15-28.8-5-38.09.5-2.39,1.4-4.76,2.92-7.26,4.52-15.27,9.76-32.58,20.83-64,12.32-27.16-7.36-29.45-33.49-31.87-61.15-.79-9-1.61-18.39-3.34-27.11-6.65-33.37,20.41-56,21.64-57,1.65-1,21.42-13.32,38-26.36h-3.29C671.76-25.93,652.8-14.17,652.52-14l-.1.07C652.13-13.7,623,9.83,630,45,631.73,53.64,632.54,62.94,633.33,71.92Z"/><path class="cls-1" d="M1006.08,187.35a21.14,21.14,0,0,0-5.07-1.42,27.55,27.55,0,0,1-3.67-.87c-6.41-2.29-12.94-5.05-19.26-7.72-20.53-8.68-41.75-17.65-64-13.1a26,26,0,0,0-6.58,2.37,24.38,24.38,0,0,0-5.73,3.76c-.46.42-.9.86-1.35,1.3-1.11,1.12-2.21,2.31-3.27,3.45-3.6,3.88-7.32,7.9-12.15,9.8l-.3.11a110.49,110.49,0,0,1-16.51,1.4c-10.21.36-20.77.72-30.79,6.74-.39.26-.78.53-1.17.82-5,3.67-10.51,8.29-14,14.65a66.62,66.62,0,0,0-3.24,7,50.48,50.48,0,0,0-3.91,16.56,25,25,0,0,0,1.38,9.65,23.24,23.24,0,0,0,4.58,8.68c6.82,7.36,17.35,9.79,26.74,11.49,8.42,1.12,16,2.18,23.64,3.73,11.17,2.27,21.11,8.64,30.72,14.8l4,2.58A106.13,106.13,0,0,0,954,299c5.38,0,10.71-.11,15.87-.22,10.51-.23,20.45-.44,31,.22,3,.5,6.33.75,9.53,1s6.46.49,9.44,1c.94.13,1.89.3,2.83.45v-2c-.84-.14-1.69-.29-2.53-.41-3-.5-6.37-.76-9.58-1s-6.46-.49-9.42-1h-.1c-10.67-.66-20.66-.45-31.23-.22-5.15.11-10.47.22-15.75.22a103.93,103.93,0,0,1-46.74-15.6c-1.34-.84-2.68-1.7-4-2.56-9.77-6.27-19.87-12.74-31.4-15.08-7.69-1.56-15.32-2.62-23.73-3.74-9-1.64-19.18-4-25.58-10.88a21.38,21.38,0,0,1-4.15-8,23.09,23.09,0,0,1-1.29-8.87,48.79,48.79,0,0,1,3.77-15.94,63.17,63.17,0,0,1,3.15-6.78c3.26-6,8.6-10.45,13.39-14,.36-.27.72-.53,1-.74,9.54-5.73,19.38-6.07,29.8-6.43A112.06,112.06,0,0,0,885.18,187l.14,0,.47-.17c5.25-2.07,9.13-6.25,12.87-10.3,1.05-1.13,2.14-2.3,3.23-3.4.42-.42.85-.84,1.29-1.24a22.58,22.58,0,0,1,5.27-3.45,25.17,25.17,0,0,1,6.08-2.2c21.59-4.42,42.52,4.43,62.77,13,6.35,2.68,12.91,5.46,19.38,7.77a29.24,29.24,0,0,0,4,.94,19.5,19.5,0,0,1,4.67,1.3l.14.06c.44.13,6.61,1.91,17.25.82V188C1012.71,189,1006.75,187.53,1006.08,187.35Z"/><path class="cls-1" d="M1022.69,717.68l-2.22-1.39-.74-.45a61.08,61.08,0,0,0-9-4.44c-1.13-.48-2.26-1-3.35-1.57a39.35,39.35,0,0,0-5.83-2.5c-2.87-.88-5.84-1.55-8.61-2.15-4-.87-8.2-1.34-12.21-1.79-2.49-.27-5.06-.56-7.56-.94-12.22-1.86-30.39-8.24-47.55-28.11-11.83-13.7-18.58-26-24-35.93-8.08-14.78-13.92-25.45-30.35-28.33-18.4-3.22-27.69-7.46-31.08-14.18-2.57-5.1-1.67-11.87,2.74-20.71,7.73-15.45,4.5-25.38.77-36.87-2.23-6.84-4.53-13.92-5-23.2-.8-15.16,7.19-21.76,18.26-30.89,6.92-5.72,14.78-12.2,22.22-22.21,8.4-11.29,10.18-22.17,5-30.62-5.38-8.81-17.85-13.25-31-11-25.64,4.27-66.18,40.67-67.5,80.28-.49,14.49,1.09,24.91,2.48,34.1,2.47,16.26,4.09,27-7.68,46.76-11.26,18.91-30.2,33.17-46.92,45.74-10.9,8.21-21.2,16-28.3,24.11-15.34,17.61-52.49,45.11-83.34,23.18-18.19-12.94-7-37.16,2-56.63,5.67-12.25,10.15-21.93,6.9-27.09-7.26-11.48-8.18-30.41-3.19-65.32s-25.16-56.66-53.8-74.33c-24.78-15.29-24-25.76-23.16-37.88A82.78,82.78,0,0,0,551,404c-.68-16.95-9-26.71-24.08-44.42l-.16-.19a86.08,86.08,0,0,0-11.37-10.91C506.5,341,502,337.3,506.32,313.51c6.38-35.47-9-94.17-26.79-124.68-18.73-32.11-12-52.78-2-70.33C488,100.14,493.93,71,484.91,50.92,480,40,481.67,20,483.91,5.15c1.6-10.57,7.72-21,18.71-31.91a96,96,0,0,0,10.31-11.93h-2.48a95.47,95.47,0,0,1-9.24,10.51c-11.31,11.21-17.62,22-19.28,33C479.65,20,478,40.39,483.09,51.74c8.74,19.5,3,47.85-7.29,65.76-10.33,18.08-17.24,39.36,2,72.34,17.59,30.14,32.68,89.28,26.55,123.32-4.49,24.93.57,29.15,9.76,36.81a85.24,85.24,0,0,1,11.13,10.68l.16.19c15.28,17.94,23,26.94,23.6,43.2a79.15,79.15,0,0,1-.3,9.08c-.88,12.24-1.7,23.8,24.11,39.73,34.86,21.51,57.19,42,52.87,72.34-5.13,35.9-4.16,54.59,3.47,66.68,2.68,4.24-1.81,13.94-7,25.18-9.32,20.14-20.92,45.2-1.38,59.1,13.57,9.65,30.1,11.1,47.78,4.2,19.28-7.52,33.16-21.87,38.22-27.69,7-8,17.19-15.69,28-23.83,16.86-12.69,36-27.06,47.43-46.32,12.14-20.37,10.38-32,7.94-48.08-1.38-9.11-2.94-19.43-2.46-33.73.58-17.67,9.31-36.32,24.56-52.51,12.88-13.69,29.08-23.84,41.27-25.87,12.39-2.07,24,2,29,10.12,4.71,7.71,3,17.79-4.91,28.39-7.3,9.81-15.06,16.21-21.9,21.86-11.08,9.14-19.83,16.36-19,32.54.5,9.54,2.95,17.07,5.11,23.71,3.75,11.53,6.72,20.63-.65,35.36-4.71,9.43-5.61,16.8-2.73,22.5,4.65,9.24,19,12.9,32.51,15.25,15.48,2.71,20.84,12.5,28.94,27.32,5.46,10,12.26,22.41,24.23,36.28,17.56,20.32,36.21,26.87,48.77,28.77,2.54.39,5.13.68,7.64,1,4,.45,8.06.91,12,1.75,2.73.59,5.64,1.25,8.44,2.11a38.52,38.52,0,0,1,5.54,2.38c1.12.55,2.27,1.12,3.45,1.62a60.42,60.42,0,0,1,8.71,4.3l.73.45c1.11.69,2.21,1.37,3.28,2.06Z"/><path class="cls-1" d="M251.87-38.69h-2c2.33,28-3.76,54.05-17.46,72.52C220.5,49.9,203.78,59,184.05,60.12c-15.52.88-28.09-.27-39.17-1.29-26.42-2.43-47.28-4.35-88,22.92-24.8,16.63-52.13,22.54-79.6,17.69v2A109,109,0,0,0-.41,102.91c20.6-.75,40.26-7.31,58.43-19.5,40.1-26.88,59.64-25.08,86.68-22.59,11.15,1,23.79,2.19,39.46,1.29C204.5,61,221.74,51.58,234,35,248,16.2,254.2-10.29,251.87-38.69Z"/><path class="cls-1" d="M472.48,380.29a93.87,93.87,0,0,1-9.09-5.75c-10.85-8.08-17.15-19-19.29-33.46-2.45-16.66-8.39-28.29-18.66-36.61-8.34-6.76-18.22-9.87-27.77-12.88-4.7-1.47-9.56-3-14.2-4.95a58.67,58.67,0,0,1-27.6-23.11c-4.13-6.57-6.94-13.9-9.66-21-3-7.78-6.07-15.82-10.92-23C318.15,194.2,284,173.76,254.4,185.85c-26.63,10.87-55.66,13.68-83.74,16.4l-10.28,1c-12.65,1.22-25.74,2.47-38.48,4.7s-26.83,6.15-35.28,18.46C79.37,237,77.91,250,77,262.47c-.07,1.09-.12,2.2-.16,3.33-.17,4.42-.35,9-2.57,12.62s-6.18,6.34-11.78,8.08C57.7,288,53,288.14,48,288.28c-2.41.06-4.9.13-7.39.37-18.62,1.76-32.38.19-46-5.27-2.93-1.17-5.84-2.66-8.92-4.23-2.74-1.4-5.53-2.82-8.37-4v2.18c2.52,1.1,5,2.37,7.46,3.63,3,1.52,6.07,3.09,9.08,4.3,13.76,5.51,28.24,7.17,46.95,5.4,2.43-.23,4.88-.3,7.25-.37,4.91-.13,10-.27,15.08-1.86,6.07-1.89,10.41-4.9,12.88-9s2.69-8.91,2.87-13.58c0-1.11.08-2.2.16-3.27.85-12.18,2.26-24.92,9.23-35.08,8-11.7,21.68-15.47,34-17.62,12.67-2.22,25.71-3.47,38.33-4.68l10.29-1c28.21-2.73,57.4-5.55,84.29-16.54,28.6-11.68,61.78,8.28,78.48,33,4.72,7,7.77,14.9,10.71,22.57,2.75,7.18,5.6,14.6,9.83,21.33a60.59,60.59,0,0,0,28.53,23.89c4.72,2,9.62,3.53,14.37,5,9.8,3.09,19.06,6,27.11,12.52,9.86,8,15.56,19.22,17.95,35.35,2.21,15,8.77,26.36,20.06,34.77a96.28,96.28,0,0,0,9.28,5.88,88.35,88.35,0,0,1,9.58,6.13,63.43,63.43,0,0,1,7.22,6.54c4.7,4.94,6.94,11.6,8.36,16.85,3.35,12.34,11.48,35,28.34,48,4.92,3.81,10,7.48,14.88,11,18.81,13.65,36.57,26.55,38.44,42,1,8.51-1.7,17.37-4.35,25.94-3.53,11.43-6.86,22.22-1.56,31.74.7,1.28,1.5,2.66,2.35,4.15,9.68,16.84,27.7,48.19,8.5,83.44-8.86,16.26-28.7,23.52-43.78,26.75-32.78,7-73.91,1.7-91.7-11.83-31.64-24.08-55.16-32.26-78.65-27.34-25.11,5.26-58.42-13.06-72.6-32.79-8.77-12.2-23.85-15.3-37.16-18-8.42-1.72-16.37-3.36-22.26-7-9.69-6-34.41,3.25-52.72,15.6-17.11,11.55-26,23.7-24.35,33.33.55,3.24,1.84,5.5,3.94,6.9,4.7,3.12,12.52,1.3,22.42-1,16.27-3.78,38.56-9,57.56,7.08,17.3,14.62,26.85,26.62,35.27,37.2,8.6,10.8,16,20.13,29.23,29.2,14.64,10,17.48,26.42,15.25,38.4-2.17,11.68-9.2,20.57-17.91,22.65-20.65,4.91-27.47,11.52-31.75,30.75-3.79,17.1-13,20.21-33.17,23.23l-3.41.5c-19.47,2.78-41.55,5.93-44.44,45.42-.63,8.7-.6,17.7-.56,26.39.13,32.24.25,62.68-33.72,72.72S105.6,934.05,93,899.6c-3.4-9.29-6.34-17.32-9.1-23-23.2-48-49.57-57-72.83-64.94-11.86-4-23.3-8-33.76-16.58v2.59c10.33,8.09,21.52,11.92,33.12,15.88,24,8.2,48.83,16.68,71.67,63.93,2.72,5.62,5.64,13.6,9,22.85,11.73,32.05,28.92,79,59,79a32.14,32.14,0,0,0,9.11-1.37c35.42-10.46,35.29-41.64,35.16-74.65,0-8.65-.07-17.61.56-26.24,2.77-37.88,23.08-40.78,42.72-43.58l3.43-.5c20.62-3.09,30.78-6.55,34.83-24.77,3.81-17.18,9-24.18,30.25-29.25,9.48-2.25,17.1-11.76,19.42-24.23s-.66-29.82-16.08-40.41c-13-8.9-20.31-18.12-28.81-28.79s-18.09-22.74-35.54-37.48c-19.76-16.7-42.62-11.39-59.3-7.51-9.06,2.11-16.88,3.92-20.86,1.28-1.62-1.08-2.62-2.89-3.07-5.56-1.48-8.7,7.3-20.42,23.49-31.34,19.61-13.23,42.76-20.35,50.55-15.55,6.19,3.8,14.31,5.47,22.91,7.23,13.58,2.79,27.63,5.67,35.94,17.23,14.54,20.24,48.76,39,74.63,33.59,22.86-4.78,45.89,3.28,77,27,18.19,13.84,60,19.31,93.33,12.19,15.49-3.31,35.9-10.82,45.12-27.74,19.73-36.23,1.35-68.22-8.52-85.4-.85-1.47-1.64-2.85-2.35-4.12-4.87-8.78-1.67-19.17,1.73-30.18,2.71-8.77,5.51-17.84,4.43-26.77-2-16.3-20.09-29.45-39.26-43.37-4.88-3.55-9.93-7.21-14.83-11-16.39-12.7-24.34-34.89-27.63-47-1.48-5.48-3.83-12.44-8.84-17.71a65.7,65.7,0,0,0-7.45-6.75A89.54,89.54,0,0,0,472.48,380.29Z"/><path class="cls-1" d="M-22.69,213.48q4.85.54,10.12.92c2.68.19,4.91.5,7.06.8,5.57.77,10.83,1.5,22.52,0A248.81,248.81,0,0,0,67.1,203.73a337.38,337.38,0,0,1,38.56-10.33c21.26-4.37,41.61-6.33,58-7.91,15.57-1.5,27.87-2.68,35.42-5.3s14.69-5.78,21.73-8.88c6.37-2.8,13-5.71,19.6-8.11,36.28-13.16,70.45-9.16,91.41,10.7,7.79,7.37,14,17,19.47,30.47,1.54,3.78,2.94,7.71,4.28,11.52a147.15,147.15,0,0,0,8.07,19.74c8.5,16.19,21.48,29.48,36.54,37.41a61.55,61.55,0,0,0,25.12,7,87.79,87.79,0,0,1,16.33,2.77c2.08.52,4.2,1.15,6.44,1.81,7.73,2.29,15.73,4.65,23.38,3.27,13.6-2.46,13-20.16,12.87-26-.56-18-7.83-32.65-18.57-49-12.76-19.46-19.51-36.2-21.9-54.28-3-23.09.09-46.5,3.12-69.14,1.72-12.89,3.5-26.23,4.14-39.39.16-3.34.36-6.71.56-10.12,1.37-23.14,2.79-47.07-7.41-67.41a49.85,49.85,0,0,0-7.35-11.2h-2.75a46.55,46.55,0,0,1,8.32,12.1c9.95,19.86,8.55,43.52,7.19,66.39-.2,3.41-.4,6.8-.56,10.14-.63,13.08-2.41,26.37-4.13,39.23-3,22.76-6.19,46.31-3.11,69.66,2.43,18.39,9.28,35.39,22.2,55.12,10.86,16.56,17.7,30.37,18.25,48,.29,9.35-.55,22-11.22,23.94-7.19,1.3-15-1-22.46-3.21-2.27-.67-4.41-1.3-6.52-1.84a89,89,0,0,0-16.7-2.82,58.77,58.77,0,0,1-24.31-6.75c-14.7-7.75-27.38-20.73-35.7-36.57-3.26-6.19-5.64-12.95-7.95-19.48-1.36-3.82-2.76-7.78-4.32-11.6-5.61-13.7-11.94-23.6-19.94-31.18-21.52-20.38-56.47-24.54-93.47-11.12-6.71,2.43-13.33,5.34-19.73,8.16-7,3.09-14.24,6.28-21.58,8.82s-19.51,3.71-34.95,5.2c-16.4,1.58-36.8,3.55-58.17,7.95a335.78,335.78,0,0,0-38.77,10.38C52.78,206.2,40.93,210,16.75,213.18c-11.42,1.5-16.55.79-22,0-2.19-.31-4.45-.62-7.2-.82-3.58-.25-7-.56-10.26-.93Z"/><path class="cls-1" d="M-8.93,837.07c34.17,1.13,58.65,15.28,75.07,82.24,15.13,61.69,55.33,109.15,85.44,119.39,11.23,3.81,21.14,2.66,28.65-3.36C210.48,1011.14,215,972.11,215,951c0-20.69,3-44.64,3-44.8.09-.43,9.21-43.59,36.39-54.27l1.15-.45c28.68-11.27,58.33-22.91,64.41-38.11,3.81-9.53,25.55-31.75,48.21-38,11.84-3.29,22-1.78,30.26,4.47,15.92,12.08,14.52,30,13.17,47.38-1,13.26-2,25.79,5.72,33.53,17.16,17.15,70.41,27.41,100,19.25,13.7-3.77,27-.45,34.77,8.67,8.78,10.35,9.17,26.37,1.05,44-17.79,38.56-26.58,58.15-26.7,58.42s-8.84,25.91-1.6,51.69h2.09c-7.35-25.33,1.3-50.75,1.36-51s8.88-19.77,26.67-58.32c8.45-18.32,8-35.11-1.35-46.08-8.25-9.73-22.37-13.29-36.83-9.3-29,8-81.25-2-98-18.75-7.09-7.08-6.14-19.16-5.15-32,1.33-17.05,2.84-36.38-14-49.13-8.76-6.64-19.52-8.26-32-4.8-23.62,6.55-45.5,29.12-49.54,39.23-5.76,14.39-36.32,26.4-63.28,37l-1.16.45C225.45,861.14,216.39,904,216,905.88c0,.24-3,24.3-3,45.12s-4.42,59.11-34,82.78c-6.95,5.57-16.2,6.61-26.76,3-29.6-10.06-69.17-56.94-84.14-118-7.84-32-18.15-53.81-31.51-66.73-11.5-11.12-25.51-16.37-45.43-17-1.44-.05-2.89-.08-4.35-.12-3.16-.07-6.34-.15-9.48-.36v2c3.13.2,6.29.28,9.43.35C-11.8,837-10.36,837-8.93,837.07Z"/><path class="cls-1" d="M609.17,1042.69c-1.59-28.05,9.12-49.45,32.09-63.89.56-.41,56.58-42,75.56-83,16.24-35.09,14.88-58.47-4.16-71.5-9.51-6.51-19.15-17.19-17.85-25.29.69-4.35,4.55-7.57,11.45-9.58,21.57-6.26,23.77-2.62,33,12.69.56.93,1.14,1.9,1.76,2.91,10.36,17,19.64,26.4,39,27.2,17.64.74,39.61,7.28,44.11,34.29.55,3.34,1,6.76,1.51,10.08,3.49,24.58,7.1,50,41.68,73.06,23.42,15.61,62.08,45.83,57.9,72.81-.66,4.27-3,7.92-5.54,11.79-1.18,1.81-2.39,3.68-3.41,5.61-.46.88-.92,1.82-1.35,2.84h2.18c.3-.65.62-1.29.94-1.9,1-1.86,2.17-3.69,3.31-5.46,2.52-3.87,5.12-7.88,5.85-12.57,4.35-28.08-35-58.91-58.77-74.79-33.83-22.55-37.38-47.52-40.81-71.68-.47-3.32-1-6.76-1.52-10.11-4.72-28.34-27.62-35.2-46-36S752.73,820.4,742.73,804c-.62-1-1.2-2-1.76-2.9-9.14-15.16-12.22-20.27-35.26-13.58-7.72,2.24-12.05,6-12.88,11.19-1.44,9,8.35,20.17,18.7,27.25,18.1,12.39,19.24,35,3.47,69-18.76,40.52-74.37,81.84-74.87,82.21-23.6,14.84-34.62,36.79-33,65.54Z"/><path class="cls-1" d="M-3.41,1014c-4.33,7.73-4.71,17.33-5.08,26.61l-.09,2.13h2l.09-2c.36-9.05.72-18.4,4.83-25.71C7.45,998.7,6.9,976.35-3.17,953.6a113.24,113.24,0,0,0-19.52-30v3A111.19,111.19,0,0,1-5,954.41C4.82,976.58,5.4,998.28-3.41,1014Z"/><path class="cls-1" d="M380.82-38.69c-.76.48-1.51,1-2.28,1.48C357.81-23.36,357-3.06,356.15,16.58c-.79,18.83-1.6,38.29-19.68,52.75-17.9,14.32-31.15,8.84-45.19,3-14.27-5.91-29-12-47.87,6-30.11,28.86-68.14,36.85-113,23.76-36.09-10.53-74.71,20.93-75,21.19C27.16,142.84-.89,143-22.69,137.61v2c22.17,5.34,50.61,5.09,79.26-14.72.38-.32,38.18-31.1,73.26-20.87,45.62,13.31,84.3,5.15,115-24.24,17.9-17.15,31.42-11.55,45.73-5.62,14,5.77,28.38,11.75,47.2-3.32s19.62-34.95,20.42-54.22c.84-20,1.63-38.93,21.51-52.22,1.69-1.13,3.35-2.17,5-3.14Z"/><path class="cls-1" d="M-22.69,160.26c22.16,7.63,49,9.51,78.05-7.2,1.67-.69,37.89-15.41,66.09-8.36,28.74,7.19,88-3.75,118.41-28.1,26.6-21.28,71.45,1.52,104.2,18.17,2.72,1.39,5.35,2.72,7.87,4,17.21,8.61,27.4,10.39,34.07,6,7.45-4.94,10.07-18,8.51-42.19-.54-8.35-1.62-18.72-2.77-29.7-3.69-35.2-8.74-83.41,3.32-89.53,3.7-1.88,9.13.38,16.13,6.72,12.14,11,9.66,43.49,6.78,81.11-2.56,33.51-5.46,71.49,2,100.86,5.18,20.44,16.08,35.94,24.05,47.26,6.3,9,11.28,16,10.06,20.87-.54,2.15-2.34,4-5.48,5.53-9.51,4.75-21.71,3.22-34.35-4.31-12-7.17-23.33-19.17-31-32.92-18.39-32.89-39.67-56.74-63.24-70.88C294,122,252.88,124.78,215.11,144.66c-36.58,19.25-61.69,17-81.86,15.13-23.13-2.1-50.17,4.19-78.2,18.21-28.88,14.43-47.76,9.68-49,9.35A21.14,21.14,0,0,0,1,185.93a27.55,27.55,0,0,1-3.67-.87c-6.4-2.29-12.94-5.05-19.26-7.72l-.77-.33v2.17c6.34,2.69,12.9,5.46,19.37,7.77a29.24,29.24,0,0,0,4,.94,19.5,19.5,0,0,1,4.67,1.3l.14.06c.8.24,20,5.78,50.51-9.46,27.69-13.85,54.35-20.08,77.11-18,20.44,1.86,45.88,4.17,83-15.35s77.54-22.38,102.88-7.18c22.94,13.77,44.56,38,62.53,70.14,12.38,22.14,34.9,41.05,55,41.05a28.73,28.73,0,0,0,13-3c3.69-1.85,5.82-4.09,6.52-6.84,1.44-5.72-3.51-12.76-10.37-22.5-7.87-11.19-18.66-26.51-23.74-46.6-7.35-29.05-4.46-66.86-1.91-100.21,2.91-38.16,5.43-71.1-7.44-82.75-7.79-7-13.8-9.35-18.38-7-13.28,6.75-8.56,51.79-4.4,91.53,1.15,11,2.23,21.31,2.76,29.62,1.52,23.43-.83,35.89-7.62,40.39-5.91,3.93-15.8,2-32.07-6.09-2.51-1.25-5.13-2.59-7.86-4-33.23-16.9-78.74-40-106.35-18-30,24-88.37,34.8-116.67,27.72-29.37-7.34-67,8.32-67.41,8.48l-.11.06c-28.7,16.5-55.22,14.47-77.11,6.81Z"/><path class="cls-1" d="M556.93,585.75c-2-7-4.13-14.15-4.94-20.91-1.1-6.57-.66-13.59-.24-20.39a115.68,115.68,0,0,0,.25-16.53c-2-26.35-28.69-36.86-53-37.92-7,0-14.15.34-21.05.67-13.72.65-27.9,1.33-41.84-.66a100.34,100.34,0,0,1-24.69-5.92c-1.23-.71-2.44-1.38-3.63-2-5.5-3.08-10.27-5.75-15.09-9.76-3.45-3.88-6.7-7.74-9.93-11.8l-2.29-2.89c-7.47-9.44-15.19-19.21-25.31-26.1-2.71-1.85-5.54-3.64-8.28-5.38-11-7-21.35-13.53-27.06-24.61a10.89,10.89,0,0,1-.87-3.15l-.13-.68a9.57,9.57,0,0,0-1.43-3.18c-.19-.3-.38-.6-.55-.91a52.68,52.68,0,0,0-3.79-5.87c-8.36-11.32-20.24-17.57-31.76-16.74a14.43,14.43,0,0,0-4.75,1.14c-6.85,3.42-11.19,10.95-12.53,21.69a44.56,44.56,0,0,1-4.14,11.58,12.56,12.56,0,0,1-4.23,5,21.35,21.35,0,0,1-6.41,2.5c-10.88,2.71-21.55,5.3-32.38,7.1-20.26,2.76-37-9.12-53.16-20.61l-3-2.17a119.93,119.93,0,0,0-10.54-9l-2.45-1.95c-14.54-12.92-27.11-27.15-40.41-42.21-3.12-3.53-6.28-7.1-9.45-10.64-2.85-3.8-7.69-7.9-13.35-11.29-3-1.51-5.92-3.18-8.74-4.8a97.48,97.48,0,0,0-14.35-7.24A190.65,190.65,0,0,0,20.16,299c-3-.5-6.37-.76-9.58-1s-6.46-.49-9.42-1h-.1c-8.12-.51-15.85-.5-23.75-.37v2c7.85-.13,15.53-.14,23.58.37,3,.5,6.33.75,9.53,1s6.46.49,9.44,1a188.59,188.59,0,0,1,40.79,10.95A96.17,96.17,0,0,1,74.72,319c2.84,1.64,5.77,3.32,8.77,4.82,5.38,3.23,10,7.14,12.76,10.81,3.23,3.6,6.38,7.17,9.5,10.69,13.35,15.11,26,29.38,40.63,42.42q1.27,1,2.49,2a115.29,115.29,0,0,1,10.42,8.95l.13.11,3.12,2.21c16.49,11.72,33.55,23.84,54.62,21,10.93-1.82,21.64-4.42,32.57-7.14a23.33,23.33,0,0,0,7-2.75,14.54,14.54,0,0,0,4.92-5.81A45.94,45.94,0,0,0,266,394.12c.88-7.05,3.59-16.29,11.4-20.2a12.51,12.51,0,0,1,4.05-1c10.85-.77,22.06,5.18,30,15.94a51.21,51.21,0,0,1,3.66,5.65c.18.33.38.66.58,1a7.87,7.87,0,0,1,1.18,2.5l.12.66a12.68,12.68,0,0,0,1.06,3.72C324,414,335.1,421,345.82,427.8c2.72,1.73,5.54,3.51,8.23,5.34,9.86,6.72,17.49,16.36,24.86,25.69l2.3,2.9c3.27,4.1,6.55,8,10,11.93l.11.11c5,4.16,10.07,7,15.46,10l3.68,2.08.15.07A102.42,102.42,0,0,0,435.86,492c14.09,2,28.38,1.33,42.19.68,6.87-.33,14-.67,20.91-.67,23.41,1,49.12,11,51,36.08a114.84,114.84,0,0,1-.24,16.25c-.43,6.9-.88,14,.25,20.79.82,6.88,3,14.15,5,21.19,5.68,19.42,11,37.77-6.56,51.86l-18,12a52.48,52.48,0,0,1-10.72,3.41l-2.11.51c-28,9.64-58.7,4-91.09-16.86A155.16,155.16,0,0,0,406.13,625c-4.8-2.44-10.11-1.19-15.25,0-1.61.38-3.28.78-4.88,1-16.8,2.72-29,.26-38.38-7.79-4.8-3.85-7.8-9.81-10.69-15.59-2.72-9-9.54-20.15-20.56-24.56l-.1,0c-1-.28-1.94-.58-2.92-.89-11.05-3.53-22.21-9.59-34.11-18.53-9.77-7.33-19.38-10.15-29.44-8.6-8.76,1.75-16,5-23.63,8.46l-3.49,1.57a54,54,0,0,1-11.3,2.21c-1.77.21-3.61.43-5.54.75a47.29,47.29,0,0,1-16.61,0c-12.88-3-26.19-6-39.4-4a214.86,214.86,0,0,0-22.52,5.65c-8.91,2.58-18.12,5.24-27.38,6.33-9.56.64-17.25.33-24.2-1-13-2.44-24.42-9.71-35.05-16.93-7.87-5.35-17.51-11.33-29.45-15.05-3.7-.88-7.5-1.62-11.51-2.41-7.64-1.49-15.38-3-22.41-5.48v2.07c7.11,2.47,14.76,4,22,5.38,4,.78,7.78,1.51,11.37,2.36,11.62,3.64,21.11,9.51,28.86,14.78C50.36,562.08,62,569.46,75.36,572c7.12,1.34,15,1.67,24.76,1,9.47-1.11,18.76-3.8,27.74-6.4a215.54,215.54,0,0,1,22.29-5.6c12.81-2,25.94,1.06,38.69,4a49.88,49.88,0,0,0,17.32,0c1.89-.32,3.71-.54,5.46-.75a55.41,55.41,0,0,0,11.79-2.33c1.21-.53,2.4-1.07,3.59-1.61,7.53-3.4,14.65-6.61,23.15-8.31,9.45-1.45,18.57,1.24,27.88,8.23,12.09,9.08,23.44,15.24,34.71,18.84,1,.31,2,.61,2.93.89,10.37,4.17,16.81,14.78,19.37,23.34l.07.16c3,6,6.09,12.19,11.24,16.31,12.94,11.09,29,10,40,8.22,1.67-.27,3.37-.67,5-1.06,5-1.18,9.74-2.29,13.88-.19a153.51,153.51,0,0,1,20.24,12.11c33,21.2,64.22,26.95,92.78,17.13l2-.49a53.11,53.11,0,0,0,11.2-3.59l18.17-12.11C568.35,624.8,562.54,605,556.93,585.75Z"/><path class="cls-1" d="M252.07,699.94a92.46,92.46,0,0,1-9.43-1.84c-5.86-1.58-10.16-4.8-12.75-9.55a19.12,19.12,0,0,1-.95-2.31c-2.06-6.09-4.62-13.67-11.28-16.47-5.23-2.2-11.38-1.77-18.78,1.31-7.82,3.26-14.32,8.86-20.59,14.28a133.57,133.57,0,0,1-11.64,9.3c-32.78,22.4-76.62,14.24-104.18.46-5.49-2.89-10.81-6.17-16-9.34C33.81,678,20.69,669.89,4.24,667a33.42,33.42,0,0,1-7.83-3.38c-1-.5-1.92-1-2.9-1.51a130.63,130.63,0,0,1-14.83-9.87c-.47-.44-.92-.9-1.37-1.35v2.8l.07.06A131.45,131.45,0,0,0-7.45,663.89c1,.52,2,1,2.91,1.53A35.66,35.66,0,0,0,3.83,669c16.14,2.8,29.09,10.78,41.62,18.49,5.19,3.19,10.54,6.49,16.1,9.41a129.59,129.59,0,0,0,53.86,13.58c20,.46,38.14-4.43,52.37-14.15a135.74,135.74,0,0,0,11.81-9.45c6.16-5.31,12.53-10.8,20.06-13.94,6.88-2.87,12.52-3.3,17.23-1.32,5.83,2.45,8.14,9.26,10.17,15.27a19.09,19.09,0,0,0,1.07,2.6c2.88,5.28,7.59,8.83,14,10.56a96.89,96.89,0,0,0,9.63,1.87c7.93,1.26,15.42,2.45,20.37,8,10,11.09,12.94,27.79,7,39.63-3.33,5.56-8.26,9.2-13.48,13.06a72.53,72.53,0,0,0-11.42,9.8c-3.61,4.22-5.84,9.2-8,14-.4.89-.8,1.8-1.22,2.7-5.32,11.61-18.9,16.39-31.48,19.54-8.89,2.22-17.51,4.71-25.15,10.59l-.1.08a107.54,107.54,0,0,0-10.14,12.18c-5,8.06-7,15.9-9.14,25.37-1.35,8.1-.89,16.29-.45,24.22.21,3.9.44,7.93.44,11.89-.92,8.21-3.19,13.79-6.92,17s-9,2.39-12.73.59c-15-7.2-22.11-24.16-29-40.57-1.83-4.37-3.57-8.5-5.49-12.53a59.89,59.89,0,0,1-3.45-6.9,60.91,60.91,0,0,0-3.55-7.1,68.79,68.79,0,0,0-6.86-9.22c-1-1.19-2.07-2.46-3.24-3.92C90.22,821.44,81,815,71.23,808.13c-4.49-3.14-9.13-6.39-13.59-9.9A30.07,30.07,0,0,1,47,778.79,155.82,155.82,0,0,1,44.67,762c-1.33-13.3-2.6-25.86-12-36.67-3.71-3.7-7.85-6.27-12.24-9l-.74-.45a62.61,62.61,0,0,0-9-4.44c-1.12-.48-2.25-1-3.34-1.57a37.91,37.91,0,0,0-5.72-2.46c-2.92-.91-6-1.59-8.8-2.2a121.88,121.88,0,0,0-12.15-1.78l-3.43-.39v2l3.21.37c4,.44,8,.9,12,1.74,2.8.6,5.78,1.28,8.63,2.16a35.91,35.91,0,0,1,5.42,2.34c1.12.55,2.27,1.12,3.45,1.62a59.91,59.91,0,0,1,8.71,4.3l.73.45c4.29,2.66,8.34,5.18,11.83,8.67,8.91,10.27,10.14,22.52,11.44,35.5a157.22,157.22,0,0,0,2.33,17,32,32,0,0,0,11.37,20.67c4.53,3.55,9.19,6.82,13.7,10,9.66,6.77,18.78,13.16,26.14,21.85,1.16,1.45,2.23,2.73,3.24,3.94a65.94,65.94,0,0,1,6.68,9,59.89,59.89,0,0,1,3.45,6.9,59.59,59.59,0,0,0,3.51,7c1.86,3.9,3.58,8,5.41,12.37,7,16.75,14.29,34.06,30,41.59,4.33,2.08,10.52,2.94,14.91-.89,4.14-3.6,6.63-9.62,7.6-18.39V893c0-4-.23-8.11-.45-12.06-.43-7.81-.88-15.88.43-23.72,2.05-9.23,4-16.9,8.82-24.62a106.43,106.43,0,0,1,9.86-11.85c7.33-5.61,15.71-8,24.36-10.19,13-3.26,27.14-8.27,32.82-20.65.42-.91.82-1.81,1.23-2.72,2.19-4.91,4.26-9.54,7.68-13.53a70,70,0,0,1,11.1-9.5c5.38-4,10.47-7.74,14-13.71,6.31-12.62,3.25-30.25-7.28-41.93C268.19,702.5,260,701.2,252.07,699.94Z"/><path class="cls-1" d="M212.64-38.69c-1.51,21.52-8.45,52.31-33.66,72.47-6.95,5.57-16.2,6.61-26.76,3C130,29.24,102.08.86,83.25-38.69H81.07c19.1,40.49,47.69,69.63,70.51,77.39,11.23,3.81,21.14,2.66,28.65-3.35,25.83-20.67,32.9-52.14,34.41-74Z"/><path class="cls-1" d="M785.48,293.73l-5.23-1.36c-11.06-2.93-21.58-12.56-27.46-25.13-5.18-11.06-5.87-22.29-1.89-30.82l1.75-3.71c9.87-21,28.26-60,12.77-78-16.5-19.26-44.11-7.76-68.47,2.4-25.07,10.44-57,12.88-71.42-11.59-8.38-14.2-6.86-23.8-5.26-34,1.26-8,2.55-16.17-1.34-26.54C600.38,35.5,607.87-.21,641.26-21.2c.22-.16,9.26-6.88,21.25-17.49h-3c-11,9.66-19.17,15.7-19.36,15.84-34.24,21.53-42,58-23.07,108.53,3.7,9.88,2.5,17.48,1.24,25.52-1.59,10.08-3.24,20.49,5.5,35.31,15.09,25.57,48.07,23.18,73.92,12.41,23.73-9.89,50.62-21.09,66.19-2.94,14.64,17.09-3.39,55.33-13.07,75.88l-1.75,3.72c-4.23,9.06-3.54,20.91,1.89,32.51,6.12,13.09,17.14,23.13,28.76,26.21l5.24,1.36c22.95,5.93,57.63,14.89,60,36.45,1.42,12.77-2.62,19.81-7.3,28-4,7-8.54,14.86-10.69,27.77-4.54,27.24-35.92,48.45-36.29,48.7C763.07,458,760.29,478.32,759,509.29c-.34,8.2-.5,15.12-.63,21.22-.39,17.33-.6,26.88-4.6,35-15.44,31.5-43.78,26.76-57.4,24.48l-2.22-.36c-31.49-5-33.51-32.53-35.64-61.7-1.8-24.69-3.67-50.23-24.7-61.53-26-14-41.91-39.25-44.81-71.21-1.57-17.19,10.66-34,23.6-51.74,8.85-12.15,18-24.71,23.66-38.45,11.3-27.46-19-49.53-41.17-65.64-6-4.36-11.66-8.48-15.76-12.15-7.58-6.81-17-8.77-26.94-10.85-15.81-3.31-32.17-6.73-43.49-30.18-20.73-42.93,13.39-77.08,20.44-83.49,14.55-13.23,9.44-27.13.17-52.38L528.27,47c-9.76-26.67-.09-55,0-55.25s4.64-10.33,13.84-30.43h-2.2c-9,19.55-13.41,29.5-13.49,29.69s-10,29.32,0,56.68l1.24,3.37c9.26,25.23,13.91,37.89.36,50.21-7.23,6.58-42.24,41.63-20.89,85.84,11.75,24.34,29.35,28,44.89,31.27,9.68,2,18.82,3.93,26,10.37,4.17,3.74,9.87,7.9,15.91,12.29,22.82,16.6,51.21,37.25,40.5,63.26-5.57,13.52-14.65,26-23.43,38-13.17,18.08-25.61,35.16-24,53.1,3,32.65,19.25,58.5,45.86,72.79C652.92,479,654.75,504,656.51,528.12c2.1,28.67,4.27,58.31,37.33,63.53l2.2.36c14.09,2.36,43.42,7.27,59.52-25.57,4.2-8.56,4.42-18.27,4.81-35.88.13-6.1.29-13,.63-21.19,1.26-30.39,4-50.35,30.89-71.21,1.32-.88,32.41-21.89,37.09-50,2.1-12.54,6.54-20.27,10.45-27.1,4.86-8.45,9.05-15.75,7.56-29.17C844.44,309,809,299.79,785.48,293.73Z"/><path class="cls-1" d="M1022.69,97.53c-30.25,7.7-64,1.58-92.9-17.76-19.72-13.22-17.28-28.49-11.76-39,1-1.86,2.17-3.69,3.31-5.46,2.52-3.87,5.12-7.88,5.85-12.57,3.33-21.53-19-44.67-40.32-61.45h-3.24c21.51,16.56,44.88,39.86,41.58,61.14-.66,4.27-3,7.93-5.54,11.79-1.18,1.81-2.39,3.68-3.41,5.61-4.83,9.19-9.64,26.8,12.42,41.58,29.19,19.56,63.34,25.82,94,18.17Z"/><path class="cls-1" d="M-.13-38.69H-2.26C4.81-19,4.48-.09-3.41,14c-4.33,7.73-4.71,17.33-5.08,26.61-.52,13.18-1,24.56-12.65,27.07-.54.12-1.05.21-1.55.28v2c.64-.08,1.29-.19,2-.34C-7.52,66.75-7,54.07-6.49,40.64c.36-9,.72-18.4,4.83-25.71C6.42.54,6.89-18.66-.13-38.69Z"/><path class="cls-1" d="M61.54-38.69C69.32-10,72.42,20.23,64.77,30.73c-6.54,9-14.18,10.86-19.44,10.86a23.86,23.86,0,0,1-16.55-6.85c-2.56-2.62-3.94-5.52-3.88-8.16.13-5,2.13-7,4.89-9.67,3.39-3.31,7.61-7.42,9.36-18.78,1-6.48-1-12.9-3.12-19.69A90.61,90.61,0,0,1,32-38.69h-2A91.63,91.63,0,0,0,34.12-21c2.14,6.85,4,12.77,3.05,18.79-1.65,10.7-5.43,14.4-8.77,17.65-2.75,2.69-5.35,5.23-5.49,11.06-.08,3.18,1.5,6.59,4.44,9.61a25.56,25.56,0,0,0,18,7.45c5.72,0,14-2,21-11.68,7.93-10.89,5-41.56-2.79-70.6Z"/><path class="cls-1" d="M355.37,1042.69c2-8.47,2.41-17.31,2.77-26,.84-20,1.63-38.93,21.51-52.22,15.71-10.49,29.41-14.3,40.74-11.3,13.72,3.63,20,16.14,22.05,20.26,9.95,19.86,8.55,43.52,7.19,66.39-.06,1-.11,1.93-.17,2.89h2c0-.92.1-1.84.16-2.77,1.37-23.14,2.79-47.07-7.41-67.41-2.16-4.31-8.73-17.43-23.32-21.3-11.9-3.14-26.16.75-42.36,11.58-20.73,13.85-21.57,34.15-22.39,53.79-.37,8.76-.74,17.65-2.85,26.11Z"/><path class="cls-1" d="M388.83,1042.69c-2.26-27.94-2.58-54.92,6.23-59.39,3.7-1.88,9.13.38,16.13,6.72,8.93,8.09,9.95,27.82,8.72,52.67h2c1.24-25.34.13-45.55-9.37-54.15-7.79-7-13.8-9.35-18.38-7-9.93,5-9.8,31.52-7.36,61.18Z"/><path class="cls-1" d="M631.65,1042.69c-5.24-32.29,20.75-54,22-55,2.37-1.46,42.39-26.36,56.23-43.14,1.51-1.84,3-3.75,4.57-5.77,12.65-16.31,27-34.81,60.12-13,9.88,6.51,24.89,12.06,40.78,17.93,45.55,16.85,102.25,37.81,81.75,97,0,0-.28.76-.65,2h2.09c.25-.82.42-1.28.44-1.32,21.15-61-36.56-82.39-82.94-99.53-15.78-5.84-30.69-11.35-40.37-17.73-34.67-22.84-50.27-2.74-62.8,13.42-1.56,2-3,3.91-4.54,5.73-13.74,16.67-55.36,42.48-55.78,42.74l-.1.07c-.29.23-28.1,22.73-22.8,56.62Z"/><path class="cls-1" d="M227.46,1042.69A73.24,73.24,0,0,0,234,1035c17.74-23.93,23-60.24,14-97.14-11.79-48.65,10.95-58,45.37-72.16,8.83-3.63,18-7.38,27.61-12.2,24.79-12.4,43.64-15.76,57.62-10.26,11.37,4.46,20,15,26.49,32.21,7.24,19.31,32.52,22.29,57,25.17,22.13,2.61,45,5.31,54.11,20,11.5,18.58-1.82,38.08-15,51.17-11.31,11.21-17.62,22-19.28,33-1.76,11.67-3.13,26.47-1.33,37.84h2c-1.83-11.11-.46-25.89,1.3-37.54,1.6-10.57,7.72-21,18.71-31.91,13.72-13.6,27.52-33.94,15.32-53.65-9.6-15.51-33-18.27-55.57-20.93-25-2.94-48.53-5.72-55.34-23.89-6.66-17.77-15.7-28.69-27.63-33.38-14.54-5.71-33.92-2.33-59.25,10.34-9.57,4.79-18.67,8.53-27.47,12.15-34.11,14-58.75,24.15-46.55,74.47,8.81,36.33,3.68,72-13.72,95.48a68.83,68.83,0,0,1-7.8,8.86Z"/><path class="cls-1" d="M287.33,1029.89c-5.09,0-8.95-1.5-11.48-4.47-3.16-3.71-4.12-9.62-2.84-17.58,5.32-33.05-2.12-48.38-7.55-59.57-3.87-8-6.93-14.27-4.43-23.53,5.64-20.8,22.16-36.17,49.1-45.68A170.45,170.45,0,0,1,362,870c25.43,0,48.7,20.13,53,45.84,3.54,21.27-20,25.21-42.82,29-4,.67-8.12,1.36-12,2.13-12.52,2.5-16.44,17.67-20.58,33.72-3.85,14.9-7.83,30.3-19.1,37.15C308,1025.51,295.85,1029.89,287.33,1029.89ZM362,872a168.41,168.41,0,0,0-51.2,8.94c-26.29,9.29-42.38,24.2-47.83,44.32-2.32,8.54.45,14.24,4.29,22.14,5.54,11.43,13.14,27.08,7.73,60.76-1.18,7.35-.38,12.72,2.38,16,2.13,2.5,5.48,3.77,10,3.77,8.17,0,19.88-4.28,32.15-11.74,10.57-6.44,14.45-21.44,18.2-35.95,4.31-16.68,8.38-32.43,22.12-35.18,3.88-.78,8-1.47,12-2.14,21.82-3.64,44.39-7.41,41.17-26.72C408.89,891.4,386.48,872,362,872Z"/><path class="cls-1" d="M318.19,948.22c-12,0-23.88-6.21-28.14-14.77-2.35-4.72-3.62-12.38,3.69-22.05.26-.3,22.11-25.51,55.07-25.51,1.25,0,2.51,0,3.76.11,18.17,1,30.61,5.29,37,12.63A17.84,17.84,0,0,1,394,912.08c-.49,5.84-9.84,8.38-21.68,11.6-12.45,3.39-27.95,7.61-35.6,17C332.72,945.53,326.14,948.22,318.19,948.22Zm30.62-60.33c-32,0-53.3,24.51-53.51,24.76-5.26,7-6.47,13.86-3.46,19.91,3.94,7.92,15,13.66,26.35,13.66,7.34,0,13.37-2.43,17-6.85,8.05-9.84,23.89-14.15,36.62-17.62,10.64-2.89,19.84-5.39,20.21-9.83a15.7,15.7,0,0,0-4-12c-5.93-6.83-18.24-11-35.59-12C351.25,887.93,350,887.89,348.81,887.89Z"/><path class="cls-1" d="M343.41-38.69a150.7,150.7,0,0,0-5.73,18.89c-3.75,14.51-7.63,29.51-18.2,36-12.27,7.46-24,11.74-32.15,11.74-4.48,0-7.83-1.27-10-3.77-2.76-3.24-3.56-8.61-2.38-16,3.54-22.06,1.51-36.38-1.88-46.85H271c3.42,10.31,5.56,24.47,2,46.53-1.28,8-.32,13.87,2.84,17.58,2.53,3,6.39,4.47,11.48,4.47,8.52,0,20.62-4.38,33.19-12C331.79,11,335.77-4.4,339.62-19.3c1.79-6.95,3.54-13.73,6-19.39Z"/></svg>