<svg xmlns="http://www.w3.org/2000/svg" viewBox="0 0 121.34 121.34"><defs><style>.cls-1{fill:#f0f0f7;}.cls-2{fill:transparent;}</style></defs><g id="Layer_2" data-name="Layer 2"><g id="Layer_1-2" data-name="Layer 1"><path class="cls-1" d="M47.78,83.91a.47.47,0,0,0-.47-.35h-.13L43,84.78a.49.49,0,0,0-.33.6l1.21,4.2a.48.48,0,0,0,.46.35.34.34,0,0,0,.14,0l4.2-1.2A.51.51,0,0,0,49,88.1Zm-3.46,5.54-1.2-4.2L47.31,84l1.21,4.2Z"/><rect class="cls-2" x="43.64" y="84.56" width="4.37" height="4.37" transform="matrix(0.96, -0.28, 0.28, 0.96, -22.2, 16.05)"/><path class="cls-1" d="M57.33,55.78a.48.48,0,0,0-.58-.05l-.11.08-3,3.21a.48.48,0,0,0,0,.68l3.21,3a.48.48,0,0,0,.58.06.28.28,0,0,0,.1-.09l3-3.2a.5.5,0,0,0,0-.69Zm-.09,6.53-3.21-3,3-3.21,3.21,3Z"/><rect class="cls-2" x="54.93" y="57.04" width="4.37" height="4.37" transform="translate(-25.15 60.92) rotate(-47.22)"/><path class="cls-1" d="M82.1,18.68l-.4-4.35a.5.5,0,0,0-.18-.33.47.47,0,0,0-.31-.11h0l-4.35.4a.48.48,0,0,0-.44.53l.4,4.35a.47.47,0,0,0,.17.33.51.51,0,0,0,.31.11h0l4.35-.4A.5.5,0,0,0,82.1,18.68Zm-4.84.44-.4-4.35,4.35-.39.4,4.35Z"/><rect class="cls-2" x="77.05" y="14.57" width="4.37" height="4.37" transform="translate(-1.2 7.28) rotate(-5.22)"/><path class="cls-1" d="M88.33,74.56l-4.14-1.4a.41.41,0,0,0-.16,0,.39.39,0,0,0-.21.06.44.44,0,0,0-.25.28l-1.4,4.13a.5.5,0,0,0,.31.62l4.14,1.4.15,0a.54.54,0,0,0,.22,0,.51.51,0,0,0,.24-.28l1.4-4.14A.48.48,0,0,0,88.33,74.56Zm-1.56,4.6-4.14-1.4L84,73.62,88.17,75Z"/><rect class="cls-2" x="83.22" y="74.2" width="4.37" height="4.37" transform="translate(-14.27 132.9) rotate(-71.36)"/><path class="cls-1" d="M65.4,111.52H61a.49.49,0,0,0-.49.49v4.37a.49.49,0,0,0,.49.48H65.4a.49.49,0,0,0,.49-.48V112A.49.49,0,0,0,65.4,111.52Zm0,4.86H61V112H65.4Z"/><rect class="cls-2" x="61.04" y="112.01" width="4.37" height="4.37"/><path class="cls-1" d="M12.68,10l4.21,1.18.13,0a.49.49,0,0,0,.47-.35l1.17-4.21a.47.47,0,0,0-.33-.6L14.12,4.84l-.13,0a.49.49,0,0,0-.47.36l-1.18,4.2A.49.49,0,0,0,12.68,10ZM14,5.31,18.2,6.49,17,10.69,12.81,9.52Z"/><rect class="cls-2" x="13.32" y="5.82" width="4.37" height="4.37" transform="matrix(0.27, -0.96, 0.96, 0.27, 3.61, 20.77)"/><path class="cls-1" d="M20.81,84.5l-4.3-.77h-.08a.54.54,0,0,0-.28.08.52.52,0,0,0-.2.32l-.76,4.3a.48.48,0,0,0,.39.56l4.3.76H20a.47.47,0,0,0,.28-.09.44.44,0,0,0,.2-.31l.77-4.3A.49.49,0,0,0,20.81,84.5ZM20,89.28l-4.3-.77.77-4.3,4.3.77Z"/><rect class="cls-2" x="16.01" y="84.56" width="4.37" height="4.37" transform="translate(-70.39 89.44) rotate(-79.89)"/><path class="cls-1" d="M104.73,107.64l-4.26-1h-.1a.48.48,0,0,0-.48.38l-1,4.26a.48.48,0,0,0,.36.58l4.26,1h.11a.48.48,0,0,0,.47-.38l1-4.26A.49.49,0,0,0,104.73,107.64Zm-1.07,4.73-4.26-1,1-4.26,4.26,1Z"/><rect class="cls-2" x="99.83" y="107.58" width="4.37" height="4.37" transform="translate(-27.64 184.89) rotate(-77.19)"/><path class="cls-1" d="M86.24,54.09a.43.43,0,0,0-.32-.19h-.07a.46.46,0,0,0-.29.1l-3.5,2.6a.49.49,0,0,0-.1.69l2.61,3.5A.47.47,0,0,0,85,61a.52.52,0,0,0,.29-.09l3.5-2.61a.49.49,0,0,0,.1-.68ZM85,60.49,82.35,57l3.5-2.61,2.61,3.5Z"/><rect class="cls-2" x="83.22" y="55.25" width="4.37" height="4.37" transform="translate(-17.4 62.36) rotate(-36.67)"/><path class="cls-1" d="M33.54,22.28a.47.47,0,0,0,.39.2.53.53,0,0,0,.29-.1l3.51-2.6a.49.49,0,0,0,.1-.68l-2.61-3.51a.47.47,0,0,0-.39-.2.53.53,0,0,0-.29.1L31,18.09a.47.47,0,0,0-.1.68Zm1.29-6.4,2.61,3.51L33.93,22l-2.61-3.51Z"/><rect class="cls-2" x="32.2" y="16.75" width="4.37" height="4.37" transform="translate(-4.51 24.22) rotate(-36.58)"/><path class="cls-1" d="M.41,44.92l.9-4.27a.5.5,0,0,0-.38-.58L0,39.88v.5l.83.17-.83,4v.78A.47.47,0,0,0,.41,44.92Z"/><polygon class="cls-2" points="0 40.38 0 44.52 0.83 40.55 0 40.38"/><path class="cls-1" d="M17.69,62.43l-.1,0a.48.48,0,0,0-.35.16l-1.76,1.85a.51.51,0,0,0-.11.49l.84,2.42a.47.47,0,0,0,.36.31l.1,0A.48.48,0,0,0,17,67.5l1.76-1.85a.49.49,0,0,0,.1-.49l-.83-2.42A.47.47,0,0,0,17.69,62.43Zm-1,4.74-.84-2.41,1.76-1.86.83,2.42Z"/><polygon class="cls-2" points="15.83 64.76 16.67 67.17 18.43 65.31 17.59 62.9 15.83 64.76"/><path class="cls-1" d="M26.12,47.64a.46.46,0,0,0-.07.07.5.5,0,0,0-.13.37l.21,2.54a.49.49,0,0,0,.29.41l2.36,1a.47.47,0,0,0,.47-.05l.08-.07a.48.48,0,0,0,.12-.36L29.25,49a.5.5,0,0,0-.3-.41l-2.36-1A.47.47,0,0,0,26.12,47.64ZM29,51.58l-2.36-1L26.41,48l2.35,1Z"/><polygon class="cls-2" points="26.61 50.58 28.97 51.58 28.76 49.03 26.41 48.04 26.61 50.58"/><path class="cls-1" d="M39.27,103.37h0l-2.55.08a.5.5,0,0,0-.43.28l-1.1,2.3a.47.47,0,0,0,0,.47.48.48,0,0,0,.4.23h0l2.55-.08a.5.5,0,0,0,.43-.28l1.1-2.3a.46.46,0,0,0,0-.48A.5.5,0,0,0,39.27,103.37Zm-1.11,2.79-2.56.08,1.11-2.3,2.56-.08Z"/><polygon class="cls-2" points="35.6 106.24 38.16 106.16 39.27 103.86 36.71 103.94 35.6 106.24"/><path class="cls-1" d="M71,49l-2-1.62a.49.49,0,0,0-.31-.11l-.16,0a.47.47,0,0,0-.31.36l-.53,2.5a.49.49,0,0,0,.17.47l2,1.63a.5.5,0,0,0,.31.1.41.41,0,0,0,.16,0,.51.51,0,0,0,.32-.36l.52-2.5A.49.49,0,0,0,71,49Zm-.84,2.88-2-1.62.52-2.5,2,1.62Z"/><polygon class="cls-2" points="68.23 50.21 70.2 51.83 70.73 49.33 68.75 47.71 68.23 50.21"/><path class="cls-1" d="M62.47,79.27a.48.48,0,0,0,.24-.06L64.94,78a.49.49,0,0,0,.24-.44L65.09,75a.49.49,0,0,0-.25-.41.48.48,0,0,0-.24-.06.53.53,0,0,0-.24.06l-2.22,1.26a.47.47,0,0,0-.24.44L62,78.8a.48.48,0,0,0,.25.41A.46.46,0,0,0,62.47,79.27ZM64.6,75l.1,2.56-2.23,1.26-.09-2.55Z"/><polygon class="cls-2" points="64.7 77.53 64.6 74.97 62.38 76.23 62.47 78.79 64.7 77.53"/><path class="cls-1" d="M72.06,66.42a.48.48,0,0,0,.23.1l2.52.4a.52.52,0,0,0,.47-.19l1.51-2.06a.49.49,0,0,0,.06-.48A.45.45,0,0,0,76.7,64a.44.44,0,0,0-.22-.1L74,63.5a.48.48,0,0,0-.46.2l-1.52,2a.49.49,0,0,0,0,.48A.45.45,0,0,0,72.06,66.42Zm4.34-2-1.51,2.06L72.36,66,73.88,64Z"/><polygon class="cls-2" points="74.89 66.44 76.4 64.38 73.88 63.98 72.36 66.04 74.89 66.44"/><path class="cls-1" d="M43.52,75.73a.44.44,0,0,0,.22.1l2.53.36a.51.51,0,0,0,.47-.2l1.48-2.08a.47.47,0,0,0,.05-.47.36.36,0,0,0-.15-.19.37.37,0,0,0-.22-.1l-2.53-.36a.49.49,0,0,0-.47.2l-1.48,2.08a.47.47,0,0,0-.05.47A.4.4,0,0,0,43.52,75.73Zm4.31-2.1-1.49,2.08-2.53-.36,1.49-2.08Z"/><polygon class="cls-2" points="46.34 75.71 47.83 73.63 45.3 73.27 43.81 75.35 46.34 75.71"/><path class="cls-1" d="M106,67.34l-2.55-.1h0a.48.48,0,0,0-.42.24l-1.27,2.22a.51.51,0,0,0,0,.48.48.48,0,0,0,.4.25l2.56.1h0a.49.49,0,0,0,.42-.24l1.26-2.22a.48.48,0,0,0,0-.48A.51.51,0,0,0,106,67.34Zm-1.29,2.71-2.55-.1,1.27-2.22,2.55.1Z"/><polygon class="cls-2" points="102.16 69.94 104.71 70.05 105.98 67.83 103.43 67.73 102.16 69.94"/><path class="cls-1" d="M106.58,37.54a.48.48,0,0,0-.3-.37.48.48,0,0,0-.18,0,.46.46,0,0,0-.29.1l-2,1.54a.48.48,0,0,0-.19.47l.44,2.52a.48.48,0,0,0,.3.37l.18,0a.45.45,0,0,0,.29-.1l2-1.55a.47.47,0,0,0,.19-.46Zm-2.07,4.15-.44-2.52,2-1.55.44,2.52Z"/><polygon class="cls-2" points="104.07 39.17 104.51 41.69 106.54 40.14 106.11 37.62 104.07 39.17"/><path class="cls-1" d="M103.13,91.11a.47.47,0,0,0-.34-.13.39.39,0,0,0-.15,0l-2.43.81a.46.46,0,0,0-.31.35.49.49,0,0,0,.13.46l1.83,1.78a.55.55,0,0,0,.34.13l.16,0,2.42-.81a.49.49,0,0,0,.32-.35.47.47,0,0,0-.14-.46Zm-.93,2.94-1.83-1.78,2.42-.81,1.84,1.78Z"/><polygon class="cls-2" points="100.37 92.27 102.2 94.05 104.63 93.24 102.79 91.46 100.37 92.27"/><path class="cls-1" d="M85.5,90.11a.48.48,0,0,0-.17-.32l-.14-.08-2.38-.92a.49.49,0,0,0-.47.07.48.48,0,0,0-.19.44l.29,2.54a.44.44,0,0,0,.17.32l.13.08,2.39.92a.49.49,0,0,0,.47-.07.52.52,0,0,0,.19-.44Zm-2.58,1.68-.29-2.54,2.39.92.28,2.53Z"/><polygon class="cls-2" points="82.64 89.25 82.92 91.79 85.3 92.7 85.02 90.17 82.64 89.25"/><path class="cls-1" d="M84.82,104.38a.55.55,0,0,0,.12-.35.8.8,0,0,0,0-.15L84,101.49a.5.5,0,0,0-.37-.3.48.48,0,0,0-.45.16l-1.69,1.91a.5.5,0,0,0-.12.35.4.4,0,0,0,0,.15l.92,2.38a.48.48,0,0,0,.82.15Zm-3-.8,1.69-1.91.92,2.38L82.76,106Z"/><polygon class="cls-2" points="83.53 101.67 81.84 103.58 82.76 105.97 84.45 104.05 83.53 101.67"/><path class="cls-1" d="M62.29,24a.5.5,0,0,0,.13-.49l-.73-2.45a.49.49,0,0,0-.34-.33l-.13,0a.47.47,0,0,0-.33.14l-1.84,1.78a.48.48,0,0,0-.13.48l.73,2.45a.5.5,0,0,0,.34.34h.12a.48.48,0,0,0,.34-.14Zm-2.91-1,1.84-1.78L62,23.64l-1.84,1.77Z"/><polygon class="cls-2" points="61.22 21.19 59.38 22.97 60.11 25.41 61.95 23.64 61.22 21.19"/><path class="cls-1" d="M46.07,29.12a.49.49,0,0,0,.21.46L48.4,31a.49.49,0,0,0,.47,0A.41.41,0,0,0,49,31a.44.44,0,0,0,.17-.32l.29-2.54a.5.5,0,0,0-.21-.46l-2.12-1.42a.47.47,0,0,0-.47,0l-.11.06a.51.51,0,0,0-.17.32ZM49,28.07l-.29,2.54-2.12-1.43.29-2.54Z"/><polygon class="cls-2" points="48.67 30.61 48.96 28.07 46.84 26.64 46.55 29.18 48.67 30.61"/><path class="cls-1" d="M15.23,32.12l-1.32-2.18a.49.49,0,0,0-.42-.24.47.47,0,0,0-.41.24l-1.33,2.18a.5.5,0,0,0,0,.5l1.33,2.19a.49.49,0,0,0,.41.23.5.5,0,0,0,.42-.23l1.32-2.19A.45.45,0,0,0,15.23,32.12Zm-1.74,2.44-1.32-2.19,1.32-2.18,1.33,2.18Z"/><polygon class="cls-2" points="12.17 32.37 13.49 34.56 14.82 32.37 13.49 30.19 12.17 32.37"/><path class="cls-1" d="M17.35,22.74,19.9,23a.45.45,0,0,0,.43-.19.47.47,0,0,0,.06-.47L19.44,20a.47.47,0,0,0-.4-.3L16.5,19.4a.47.47,0,0,0-.44.19.49.49,0,0,0-.06.47L17,22.43A.49.49,0,0,0,17.35,22.74Zm-.9-2.86,2.54.25,1,2.37-2.54-.25Z"/><polygon class="cls-2" points="18.99 20.13 16.45 19.88 17.4 22.25 19.94 22.5 18.99 20.13"/><path class="cls-1" d="M93.51,8.84a.45.45,0,0,0,.25-.07l2.18-1.33A.49.49,0,0,0,96.18,7a.5.5,0,0,0-.24-.41L93.75,5.29a.43.43,0,0,0-.25-.07.45.45,0,0,0-.25.07L91.07,6.62a.48.48,0,0,0-.23.42.49.49,0,0,0,.23.41l2.19,1.32A.45.45,0,0,0,93.51,8.84Zm0-3.13L95.69,7,93.51,8.36,91.32,7Z"/><polygon class="cls-2" points="95.69 7.03 93.5 5.71 91.32 7.04 93.51 8.36 95.69 7.03"/><path class="cls-1" d="M45.94,1.65a.45.45,0,0,0,.2,0,.57.57,0,0,0,.28-.08L48.52.15A.5.5,0,0,0,48.66,0h-.77L46.14,1.21,46,0H45.5l.16,1.27A.48.48,0,0,0,45.94,1.65Z"/><polygon class="cls-2" points="47.89 0 45.99 0 46.14 1.21 47.89 0"/><path class="cls-1" d="M2.33,89.3l.91-2.38a.47.47,0,0,0-.07-.47.47.47,0,0,0-.38-.19h0L.2,86.55a.43.43,0,0,0-.2.07v1.07L.25,87l2.54-.29-.92,2.39L0,89.34v.49l1.93-.22A.49.49,0,0,0,2.33,89.3Z"/><polygon class="cls-2" points="2.79 86.74 0.25 87.03 0 87.69 0 89.34 1.87 89.13 2.79 86.74"/><path class="cls-1" d="M2.42,27.3a.48.48,0,0,0,.25-.4.53.53,0,0,0-.22-.43L.31,25.08A.53.53,0,0,0,0,25H0v.51l0,0,2.14,1.39L0,28.11v.51a.66.66,0,0,0,.2-.06Z"/><polygon class="cls-2" points="0.04 25.49 0 25.51 0 28.11 2.18 26.88 0.04 25.49"/><path class="cls-1" d="M1.06,5.66.55,3.16A.48.48,0,0,0,.24,2.8a.51.51,0,0,0-.17,0H0v.54l.07-.06L.58,5.76,0,6.23v.62l.89-.72A.47.47,0,0,0,1.06,5.66Z"/><polygon class="cls-2" points="0.07 3.25 0 3.31 0 6.23 0.58 5.76 0.07 3.25"/><path class="cls-1" d="M52.78,11.88l.63-2.42A.47.47,0,0,0,53.29,9L51.57,7.2a.47.47,0,0,0-.35-.15h-.13l-2.34.61A.46.46,0,0,0,48.4,8l-.63,2.42a.47.47,0,0,0,.12.45l1.72,1.81a.47.47,0,0,0,.35.15h.12l2.36-.61A.48.48,0,0,0,52.78,11.88Zm-.47-.12L50,12.37l-1.72-1.81.63-2.42,2.35-.61,1.72,1.81Z"/><polygon class="cls-2" points="51.22 7.53 48.87 8.14 48.24 10.56 49.96 12.37 52.31 11.76 52.94 9.34 51.22 7.53"/><path class="cls-1" d="M78,1.88h2.42a.48.48,0,0,0,.43-.25L81.78,0h-.55l-.78,1.4H78L77.25,0h-.56l.91,1.63A.48.48,0,0,0,78,1.88Z"/><polygon class="cls-2" points="80.45 1.4 81.23 0 77.25 0 78.03 1.4 80.45 1.4"/><path class="cls-1" d="M.27,67.46l1.22-2.19a.49.49,0,0,0,0-.47L.27,62.62A.51.51,0,0,0,0,62.39v.73L1.06,65,0,67v.73A.53.53,0,0,0,.27,67.46Z"/><polygon class="cls-2" points="0 63.12 0 66.95 1.06 65.04 0 63.12"/><path class="cls-1" d="M20.21,105.29a.48.48,0,0,0-.38-.32l-2.39-.4h-.08a.49.49,0,0,0-.38.18l-1.56,2a.48.48,0,0,0-.07.46l.83,2.36a.45.45,0,0,0,.38.31l2.39.41H19a.47.47,0,0,0,.38-.19l1.56-2a.51.51,0,0,0,.08-.46ZM19,109.76l-2.39-.4L15.8,107l1.56-2,2.39.4.84,2.36Z"/><polygon class="cls-2" points="17.36 105.05 15.8 107 16.64 109.36 19.03 109.76 20.59 107.81 19.75 105.45 17.36 105.05"/><path class="cls-1" d="M32.57,92.94a.5.5,0,0,0-.38-.32l-2.39-.4h-.08a.49.49,0,0,0-.38.18l-1.56,2a.45.45,0,0,0-.08.46l.83,2.35a.5.5,0,0,0,.38.32l2.39.41h.08a.49.49,0,0,0,.38-.18l1.56-1.95a.48.48,0,0,0,.08-.47Zm-1.19,4.47L29,97l-.83-2.35,1.56-2,2.39.4.83,2.35Z"/><polygon class="cls-2" points="29.72 92.7 28.16 94.65 28.99 97 31.39 97.41 32.94 95.45 32.11 93.1 29.72 92.7"/><path class="cls-1" d="M55.89,102.39a.49.49,0,0,0-.11-.48l-1.69-1.75-.06,0a.47.47,0,0,0-.41-.08l-2.42.64a.48.48,0,0,0-.33.33l-.73,2.39a.5.5,0,0,0,.11.48l1.69,1.75.06,0a.47.47,0,0,0,.41.08l2.42-.65a.45.45,0,0,0,.33-.32Zm-3.6,2.89-1.69-1.75.73-2.39,2.41-.64,1.69,1.75-.73,2.39Z"/><polygon class="cls-2" points="53.74 100.5 51.33 101.14 50.6 103.53 52.29 105.28 54.7 104.64 55.43 102.25 53.74 100.5"/><path class="cls-1" d="M31.83,40.4a.46.46,0,0,0,.33-.13L34,38.55a.49.49,0,0,0,.15-.45l-.51-2.45a.47.47,0,0,0-.33-.36L31,34.56a.39.39,0,0,0-.15,0,.46.46,0,0,0-.33.13l-1.81,1.72a.5.5,0,0,0-.15.45L29,39.29a.47.47,0,0,0,.33.36l2.31.73A.39.39,0,0,0,31.83,40.4ZM29,36.74,30.82,35l2.32.73.5,2.45-1.81,1.72-2.32-.73Z"/><polygon class="cls-2" points="33.64 38.2 33.14 35.75 30.82 35.02 29.01 36.74 29.51 39.19 31.83 39.92 33.64 38.2"/><path class="cls-1" d="M98.09,29.8l.34-2.47a.47.47,0,0,0-.17-.44l-1.92-1.6a.47.47,0,0,0-.31-.11.51.51,0,0,0-.17,0l-2.26.87a.49.49,0,0,0-.31.39l-.35,2.47a.51.51,0,0,0,.18.45L95,31a.47.47,0,0,0,.32.12l.17,0,2.26-.88A.47.47,0,0,0,98.09,29.8Zm-2.75.81L93.43,29l.34-2.47L96,25.66,98,27.26l-.34,2.48Z"/><polygon class="cls-2" points="96.03 25.66 93.77 26.54 93.43 29.01 95.34 30.61 97.61 29.74 97.95 27.26 96.03 25.66"/><path class="cls-1" d="M35.28,73.49l1.21-2.18a.51.51,0,0,0,0-.48l-1.21-2.18a.5.5,0,0,0-.43-.25H32.43a.5.5,0,0,0-.43.25l-1.21,2.18a.51.51,0,0,0,0,.48L32,73.49a.5.5,0,0,0,.43.25h2.42A.5.5,0,0,0,35.28,73.49Zm-2.85-.24-1.22-2.18,1.22-2.18h2.42l1.22,2.18-1.22,2.18Z"/><polygon class="cls-2" points="34.85 68.89 32.43 68.89 31.21 71.07 32.43 73.25 34.85 73.25 36.07 71.07 34.85 68.89"/><path class="cls-1" d="M57.23,40a.49.49,0,0,0-.4-.29l-2.41-.24h-.05a.49.49,0,0,0-.4.21l-1.42,2.06a.49.49,0,0,0,0,.47l1,2.29a.49.49,0,0,0,.4.29l2.41.23h0a.49.49,0,0,0,.4-.21l1.42-2.06a.49.49,0,0,0,0-.47Zm-.87,4.54L54,44.3,53,42l1.42-2,2.42.23,1,2.29Z"/><polygon class="cls-2" points="54.37 39.95 52.95 42 53.95 44.3 56.36 44.53 57.78 42.48 56.79 40.18 54.37 39.95"/><path class="cls-1" d="M67.14,89.22a.48.48,0,0,0-.26-.07.42.42,0,0,0-.22,0l-4.5,2.28a.5.5,0,0,0-.26.41.47.47,0,0,0,.22.43l4.22,2.76a.5.5,0,0,0,.27.07.44.44,0,0,0,.22-.05.49.49,0,0,0,.26-.41l.27-5A.48.48,0,0,0,67.14,89.22Zm-.53,5.45-4.23-2.76,4.5-2.28Z"/><polygon class="cls-2" points="66.61 94.67 66.88 89.63 62.38 91.91 66.61 94.67"/><path class="cls-1" d="M63.22,7.52h.1l4.93-1.06a.48.48,0,0,0,.36-.33.46.46,0,0,0-.1-.47L65.13,1.91a.45.45,0,0,0-.36-.16h-.1a.47.47,0,0,0-.36.32l-1.55,4.8a.47.47,0,0,0,.1.48A.5.5,0,0,0,63.22,7.52Zm1.55-5.29L68.15,6,63.22,7Z"/><polygon class="cls-2" points="64.77 2.23 63.22 7.03 68.15 5.97 64.77 2.23"/><path class="cls-1" d="M105.31,20.05l.13,0,4.84-1.45a.48.48,0,0,0,.19-.81l-3.67-3.46a.47.47,0,0,0-.33-.14l-.14,0a.5.5,0,0,0-.33.35l-1.17,4.91a.51.51,0,0,0,.14.47A.53.53,0,0,0,105.31,20.05Zm1.16-5.39,3.67,3.46-4.83,1.45Z"/><polygon class="cls-2" points="106.47 14.66 105.31 19.57 110.14 18.12 106.47 14.66"/><path class="cls-1" d="M76.9,32.56a.47.47,0,0,0-.38-.19h-.07a.48.48,0,0,0-.38.29l-1.92,4.67a.49.49,0,0,0,.07.48.47.47,0,0,0,.38.19h.07l5-.67a.47.47,0,0,0,.38-.3.49.49,0,0,0-.06-.48Zm-2.3,5,1.92-4.66,3.08,4Z"/><polygon class="cls-2" points="74.6 37.52 79.6 36.85 76.52 32.86 74.6 37.52"/><path class="cls-1" d="M99.34,54.92h.07a.46.46,0,0,0,.38-.18l3.09-4a.49.49,0,0,0,.07-.48.52.52,0,0,0-.39-.3l-5-.68H97.5a.47.47,0,0,0-.38.19.49.49,0,0,0-.07.48L99,54.62A.47.47,0,0,0,99.34,54.92Zm3.16-4.47-3.09,4L97.5,49.77Z"/><polygon class="cls-2" points="102.5 50.45 97.5 49.77 99.41 54.44 102.5 50.45"/><path class="cls-1" d="M1.19,109.66a.48.48,0,0,0-.41-.26l-.78,0v.49l.77,0L0,111.14v.93l1.18-1.93A.46.46,0,0,0,1.19,109.66Z"/><polygon class="cls-2" points="0 109.87 0 111.14 0.77 109.89 0 109.87"/><path class="cls-1" d="M117.89,39.17a.48.48,0,0,0-.47.38l-.9,4.28a.49.49,0,0,0,.38.58l4.27.89h.17v-.78l-.07.3L117,43.93l.89-4.28,3.45.73v-.5l-3.35-.7Z"/><polygon class="cls-2" points="117 43.93 121.27 44.82 121.34 44.52 121.34 40.38 117.89 39.65 117 43.93"/><path class="cls-1" d="M121.13,86.86l-.91,2.38a.48.48,0,0,0,.45.66h.06l.61-.07v-.49l-.67.08.67-1.73V86.62A.49.49,0,0,0,121.13,86.86Z"/><polygon class="cls-2" points="121.34 89.34 121.34 87.69 120.67 89.42 121.34 89.34"/><path class="cls-1" d="M118.91,26.32a.48.48,0,0,0-.24.41.47.47,0,0,0,.22.42L121,28.54a.42.42,0,0,0,.26.08h0v-.51l0,0-2.14-1.4,2.19-1.23V25a.66.66,0,0,0-.2.06Z"/><polygon class="cls-2" points="121.29 28.14 121.34 28.11 121.34 25.51 119.15 26.74 121.29 28.14"/><path class="cls-1" d="M119.12,4.49A.47.47,0,0,0,119,5l.51,2.5a.47.47,0,0,0,.31.36.47.47,0,0,0,.47-.08l1.1-.89V6.23l-1.4,1.13-.52-2.5,1.92-1.55V2.77a.53.53,0,0,0-.24.11Z"/><polygon class="cls-2" points="119.94 7.36 121.34 6.23 121.34 3.31 119.42 4.86 119.94 7.36"/><path class="cls-1" d="M118.76,62.37a.48.48,0,0,0-.43.25l-1.21,2.18a.49.49,0,0,0,0,.47l1.21,2.19a.5.5,0,0,0,.43.25h2.43l.15,0V67l-.15.27h-2.43L117.55,65l1.21-2.19h2.43l.15.27v-.73l-.15,0Z"/><polygon class="cls-2" points="118.76 62.85 117.55 65.04 118.76 67.22 121.19 67.22 121.34 66.95 121.34 63.12 121.19 62.85 118.76 62.85"/><path class="cls-1" d="M116.65,109.51a.48.48,0,0,0,0,.48l2.41,4.43a.5.5,0,0,0,.42.26h0a.47.47,0,0,0,.41-.23l1.46-2.38v-.93l-1.87,3-2.41-4.43,4.28.11v-.49l-4.28-.11A.46.46,0,0,0,116.65,109.51Z"/><polygon class="cls-2" points="119.47 114.19 121.34 111.14 121.34 109.87 117.06 109.76 119.47 114.19"/><path class="cls-1" d="M111.67,76a.51.51,0,0,0-.4-.2h0a.49.49,0,0,0-.4.28l-2.12,4.58a.47.47,0,0,0,.44.68h0l5-.45a.48.48,0,0,0,.35-.76Zm-2.52,4.86,2.12-4.58,2.91,4.13Z"/><polygon class="cls-2" points="109.15 80.86 114.17 80.41 111.27 76.28 109.15 80.86"/><path class="cls-1" d="M41.29,52.37A.49.49,0,0,0,41,52a.65.65,0,0,0-.19,0,.48.48,0,0,0-.29.1l-4,3a.48.48,0,0,0,.1.83l4.65,2a.41.41,0,0,0,.19,0,.51.51,0,0,0,.29-.1.49.49,0,0,0,.19-.45Zm-4.51,3.1,4-3,.62,5Z"/><polygon class="cls-2" points="36.78 55.47 41.43 57.43 40.81 52.43 36.78 55.47"/><path class="cls-1" d="M15.78,50.13a.51.51,0,0,0-.14-.47L12,46.22a.47.47,0,0,0-.33-.14.35.35,0,0,0-.14,0,.47.47,0,0,0-.33.35L10,51.37a.49.49,0,0,0,.14.47.51.51,0,0,0,.33.13l.14,0,4.83-1.47A.5.5,0,0,0,15.78,50.13Zm-5.3,1.35,1.14-4.91L15.3,50Z"/><polygon class="cls-2" points="10.48 51.48 15.3 50.02 11.62 46.57 10.48 51.48"/><path class="cls-1" d="M25.52,2.43a.49.49,0,0,0,.42.24h5a.49.49,0,0,0,.42-.24.53.53,0,0,0,0-.49L30.29,0h-.56L31,2.18h-5L27.2,0h-.56L25.52,1.94A.53.53,0,0,0,25.52,2.43Z"/><polygon class="cls-2" points="30.99 2.18 29.73 0 27.2 0 25.94 2.18 30.99 2.18"/><path class="cls-1" d="M103.71,5h.09a.48.48,0,0,0,.37-.17L107.46,1a.49.49,0,0,0,.1-.48.49.49,0,0,0-.37-.31L105.88,0h-2.59l3.81.72-3.3,3.82L102.22,0h-.52l1.64,4.7A.48.48,0,0,0,103.71,5Z"/><polygon class="cls-2" points="107.1 0.72 103.29 0 102.22 0 103.8 4.54 107.1 0.72"/><path class="cls-1" d="M48.72,121l-.32-2.53a.5.5,0,0,0-.28-.39.45.45,0,0,0-.2,0,.44.44,0,0,0-.27.09l-2.11,1.45a.48.48,0,0,0-.2.46l.16,1.27H46L45.82,120l2.1-1.45.32,2.53-.35.25h.77A.48.48,0,0,0,48.72,121Z"/><polygon class="cls-2" points="47.92 118.56 45.82 120.01 45.99 121.34 47.89 121.34 48.24 121.09 47.92 118.56"/><path class="cls-1" d="M82.09,120.32l-1.21-2.19a.5.5,0,0,0-.43-.25H78a.5.5,0,0,0-.43.25l-1.21,2.19a.49.49,0,0,0,0,.47l.3.55h.56l-.44-.79L78,118.37h2.42l1.21,2.18-.43.79h.55l.31-.55A.49.49,0,0,0,82.09,120.32Z"/><polygon class="cls-2" points="80.45 118.36 78.03 118.36 76.81 120.55 77.25 121.34 81.23 121.34 81.66 120.55 80.45 118.36"/><path class="cls-1" d="M28.46,118.67a.46.46,0,0,0-.41.24l-1.41,2.43h.56l1.26-2.19,1.27,2.19h.56l-1.41-2.43A.47.47,0,0,0,28.46,118.67Z"/><polygon class="cls-2" points="27.2 121.34 29.73 121.34 28.46 119.15 27.2 121.34"/><path class="cls-1" d="M102.14,120.63a.5.5,0,0,0-.37.17.51.51,0,0,0-.09.48l0,.06h.52l-.08-.22,1.15.22h2.59l-3.65-.7Z"/><polygon class="cls-2" points="102.22 121.34 103.29 121.34 102.14 121.12 102.22 121.34"/></g></g></svg>