<?xml version="1.0" standalone="no"?>
<!DOCTYPE svg PUBLIC "-//W3C//DTD SVG 20010904//EN"
 "http://www.w3.org/TR/2001/REC-SVG-20010904/DTD/svg10.dtd">
<svg version="1.0" xmlns="http://www.w3.org/2000/svg"
 width="1275.000000pt" height="1275.000000pt" viewBox="0 0 1275.000000 1275.000000"
 preserveAspectRatio="xMidYMid meet">
<metadata>
Created by potrace 1.11, written by Peter Selinger 2001-2013
</metadata>
<g transform="translate(0.000000,1275.000000) scale(0.100000,-0.100000)"
fill="#000000" stroke="none">
<path d="M7358 11873 c-792 -795 -2841 -2858 -2875 -2895 -14 -16 -6 -27 110
-145 157 -161 238 -247 362 -387 33 -38 69 -78 80 -90 11 -11 68 -77 125 -146
58 -69 107 -127 110 -130 3 -3 67 -84 143 -180 75 -96 141 -179 145 -185 189
-236 673 -959 794 -1185 10 -19 28 -51 40 -70 11 -19 32 -55 46 -80 14 -25 44
-79 67 -120 109 -194 405 -782 405 -805 0 -1 17 -41 39 -87 33 -71 104 -236
131 -303 4 -11 15 -36 23 -55 79 -182 320 -850 342 -950 2 -8 13 -44 25 -80
12 -36 24 -72 25 -80 2 -8 21 -78 43 -155 37 -127 109 -398 117 -435 3 -13 17
-72 30 -130 34 -145 97 -440 109 -513 3 -15 7 -35 10 -45 3 -9 7 -35 10 -57 3
-22 8 -53 11 -70 3 -16 7 -43 10 -60 3 -16 7 -40 9 -51 6 -30 14 -80 22 -139
3 -27 8 -59 10 -70 2 -11 7 -42 10 -70 4 -27 8 -53 11 -58 5 -8 -1562 -1
-1576 7 -5 3 -11 27 -14 53 -6 47 -20 137 -32 198 -3 17 -14 75 -25 130 -10
55 -22 111 -25 125 -2 14 -8 41 -12 60 -4 19 -8 37 -8 40 -1 3 -5 23 -9 45
-25 126 -140 566 -207 790 -102 340 -307 896 -429 1160 -10 22 -28 63 -41 90
-64 145 -99 218 -191 400 -55 110 -113 224 -129 253 -16 28 -43 78 -60 110
-263 481 -641 1045 -1002 1491 -43 53 -85 105 -94 116 -17 21 -111 132 -128
151 -14 16 -116 132 -138 158 -47 54 -212 230 -305 324 l-102 105 -22 -19
c-30 -27 -1953 -1959 -2992 -3008 l-296 -298 89 -92 c50 -50 102 -104 116
-121 118 -134 246 -289 318 -385 48 -63 91 -120 95 -125 53 -65 265 -403 370
-590 89 -156 259 -528 334 -730 79 -211 194 -595 222 -742 2 -10 9 -36 14 -58
6 -22 13 -53 16 -70 3 -16 16 -93 30 -170 21 -118 39 -242 61 -435 2 -19 7
-80 11 -135 3 -55 8 -120 9 -145 2 -25 4 -93 5 -152 l2 -108 782 0 782 0 -2
97 c-2 107 -14 377 -19 433 -2 19 -6 69 -9 110 -3 41 -8 86 -10 100 -3 14 -7
55 -11 92 -3 37 -8 77 -10 90 -2 13 -6 41 -9 63 -7 58 -13 99 -41 265 -6 35
-44 232 -50 260 -2 8 -10 47 -19 85 -8 39 -27 115 -41 170 -14 55 -27 109 -30
121 -16 71 -117 392 -175 559 -159 455 -421 996 -680 1409 l-56 89 340 345
c188 189 438 442 556 563 118 120 218 219 222 219 19 0 356 -531 473 -745 116
-211 144 -265 224 -430 194 -396 371 -838 486 -1210 20 -66 43 -137 51 -158 7
-20 14 -40 14 -45 0 -4 7 -31 15 -60 15 -50 63 -230 70 -262 2 -8 17 -72 34
-142 17 -69 32 -137 35 -150 2 -13 12 -57 21 -98 9 -41 18 -91 21 -110 3 -19
7 -42 9 -50 2 -8 7 -31 10 -50 3 -19 10 -57 15 -85 11 -55 13 -72 30 -190 6
-44 13 -91 15 -105 8 -53 15 -107 19 -150 3 -25 7 -65 10 -90 6 -51 13 -123
21 -225 3 -38 8 -88 10 -110 7 -70 18 -346 19 -470 0 -66 4 -122 8 -125 3 -3
1058 -5 2345 -5 l2338 0 -1 130 c-2 168 -14 544 -19 587 -2 18 -7 85 -10 148
-4 63 -8 131 -10 150 -1 19 -6 76 -9 125 -4 50 -9 101 -11 115 -2 14 -7 61
-10 105 -4 44 -8 87 -10 95 -2 8 -7 47 -11 85 -3 39 -8 79 -10 90 -2 11 -7 45
-10 75 -3 30 -7 66 -9 79 -2 13 -7 45 -11 70 -3 25 -7 57 -10 70 -2 13 -6 45
-10 70 -4 25 -8 55 -10 66 -2 11 -11 67 -20 125 -8 58 -19 121 -24 140 -5 19
-11 53 -14 75 -7 58 -75 396 -106 530 -5 22 -19 81 -31 130 -11 50 -22 98 -25
108 -2 10 -6 27 -9 37 -3 10 -8 27 -10 37 -8 39 -24 103 -55 218 -17 66 -33
127 -35 135 -5 19 -67 233 -94 320 -51 170 -72 235 -114 360 -210 626 -420
1133 -713 1725 -135 273 -185 369 -271 525 -20 36 -44 79 -53 95 -9 17 -32 57
-50 90 -147 265 -421 698 -649 1025 -103 149 -297 417 -311 430 -3 3 -37 48
-77 100 -39 52 -81 106 -92 119 -12 13 -21 29 -21 35 0 6 247 260 548 565
l548 554 45 -55 c24 -30 56 -70 70 -89 15 -19 54 -68 87 -110 51 -65 306 -404
348 -464 8 -11 47 -66 87 -122 128 -181 330 -484 441 -663 32 -52 69 -111 81
-130 13 -19 57 -92 98 -161 371 -624 687 -1250 958 -1899 38 -91 73 -174 78
-185 5 -11 13 -31 19 -45 9 -22 42 -108 142 -370 50 -132 127 -353 174 -500
90 -278 122 -380 176 -570 56 -195 124 -445 141 -520 4 -19 26 -111 48 -205
67 -279 131 -589 176 -850 9 -49 18 -101 20 -115 3 -14 12 -70 21 -125 8 -55
17 -111 20 -125 2 -14 9 -59 14 -100 6 -41 12 -84 14 -95 2 -11 7 -45 10 -76
4 -31 8 -65 10 -75 2 -11 7 -50 11 -87 3 -37 8 -76 10 -85 1 -9 6 -48 9 -87 4
-38 9 -81 11 -95 3 -21 9 -87 21 -215 1 -16 5 -64 8 -105 3 -41 8 -102 11
-135 2 -33 7 -105 10 -160 3 -55 7 -122 10 -150 6 -78 18 -443 19 -612 l1
-153 25 -1 c30 0 1437 0 1497 0 l43 1 -5 273 c-6 300 -11 456 -20 592 -3 50
-8 128 -10 174 -2 46 -7 115 -10 155 -10 117 -14 157 -20 236 -3 41 -8 93 -10
115 -2 22 -7 69 -10 105 -3 36 -8 76 -10 90 -2 14 -7 54 -10 90 -6 66 -11 107
-19 170 -2 19 -12 91 -21 160 -9 69 -18 136 -20 149 -2 13 -7 45 -11 70 -3 25
-8 60 -11 76 -2 17 -6 44 -9 60 -4 35 -15 102 -20 130 -3 11 -6 34 -9 52 -2
18 -9 60 -15 93 -6 33 -13 75 -15 93 -3 18 -21 113 -40 212 -20 99 -38 194
-41 210 -3 17 -18 91 -35 165 -17 74 -32 146 -35 160 -3 14 -12 54 -20 90 -9
36 -18 75 -20 87 -14 74 -143 565 -195 748 -65 229 -212 700 -229 740 -5 11
-20 54 -34 95 -72 221 -242 671 -375 994 -173 417 -451 1009 -639 1361 -30 55
-77 143 -105 195 -28 52 -58 109 -67 125 -391 699 -776 1293 -1238 1912 -156
208 -501 646 -583 738 -14 17 -59 68 -99 115 -119 140 -204 237 -326 370 -18
19 -42 46 -54 60 -35 40 -247 263 -392 413 l-134 137 -416 -417z"/>
</g>
</svg>
